<?xml version="1.0" encoding="UTF-8"?>
<svg xmlns="http://www.w3.org/2000/svg" xmlns:xlink="http://www.w3.org/1999/xlink" width="24pt" height="24pt" viewBox="0 0 24 24" version="1.1">
<g id="surface1">
<path style=" stroke:none;fill-rule:nonzero;fill:rgb(16.862745%,16.470588%,16.078431%);fill-opacity:1;" d="M 6.882812 16.996094 C 6.726562 17.144531 6.480469 17.136719 6.332031 16.984375 C 6.1875 16.828125 6.191406 16.582031 6.347656 16.4375 L 10.964844 12.023438 L 6.347656 7.613281 C 6.191406 7.464844 6.183594 7.21875 6.332031 7.0625 C 6.480469 6.90625 6.726562 6.902344 6.882812 7.050781 L 10.988281 10.972656 L 10.988281 2.9375 C 10.988281 2.851562 11.015625 2.765625 11.074219 2.695312 C 11.207031 2.527344 11.453125 2.5 11.621094 2.632812 L 17.21875 7.125 C 17.242188 7.140625 17.257812 7.160156 17.277344 7.183594 C 17.417969 7.34375 17.398438 7.589844 17.234375 7.730469 L 12.152344 12.023438 L 17.234375 16.316406 C 17.398438 16.457031 17.417969 16.699219 17.277344 16.867188 C 17.257812 16.890625 17.242188 16.910156 17.21875 16.925781 L 11.621094 21.414062 C 11.453125 21.550781 11.207031 21.523438 11.074219 21.355469 C 11.015625 21.28125 10.988281 21.199219 10.988281 21.113281 L 10.988281 13.078125 Z M 11.765625 11.332031 L 16.371094 7.441406 L 11.765625 3.746094 Z M 11.765625 12.714844 L 11.765625 20.300781 L 16.371094 16.605469 Z M 11.765625 12.714844 "/>
</g>
</svg>
