<?xml version="1.0" encoding="utf-8"?>
<!-- Generator: Adobe Illustrator 24.0.2, SVG Export Plug-In . SVG Version: 6.00 Build 0)  -->
<svg version="1.1" xmlns="http://www.w3.org/2000/svg" xmlns:xlink="http://www.w3.org/1999/xlink" x="0px" y="0px"
	 viewBox="0 0 24 24" style="enable-background:new 0 0 24 24;" xml:space="preserve">
<style type="text/css">
	.st0{fill:none;}
	.st1{fill:#ffffff;}
</style>
<g id="bounding_box">
	<rect class="st0" width="24" height="24"/>
</g>
<g id="design">
	<g>
		<path class="st1" d="M21,4H3C2.45,4,2,4.45,2,5v14c0,0.55,0.45,1,1,1h18c0.55,0,1-0.45,1-1V5C22,4.45,21.55,4,21,4z M10,9H7v3
			c0,0.55-0.45,1-1,1s-1-0.45-1-1V8c0-0.55,0.45-1,1-1h4c0.55,0,1,0.45,1,1S10.55,9,10,9z M19,16c0,0.55-0.45,1-1,1h-4
			c-0.55,0-1-0.45-1-1s0.45-1,1-1h3v-3c0-0.55,0.45-1,1-1s1,0.45,1,1V16z"/>
	</g>
</g>
</svg>
