<?xml version="1.0" encoding="utf-8"?>
<!-- Generator: Adobe Illustrator 24.0.2, SVG Export Plug-In . SVG Version: 6.00 Build 0)  -->
<svg version="1.1" xmlns="http://www.w3.org/2000/svg" xmlns:xlink="http://www.w3.org/1999/xlink" x="0px" y="0px"
	 viewBox="0 0 24 24" style="enable-background:new 0 0 24 24;" xml:space="preserve">
<style type="text/css">
	.st0{fill:none;}
	.st1{fill:#ffffff;}
</style>
<g id="bounding_box">
	<rect class="st0" width="24" height="24"/>
</g>
<g id="design">
	<g>
		<path class="st1" d="M11.76,2c-2.67,0.07-5.16,1.17-7,3.1C2.92,7.04,1.94,9.57,2,12.24C2.13,17.67,6.59,22,12,22h0.24
			c2.67-0.07,5.16-1.17,7-3.1c1.84-1.94,2.82-4.47,2.76-7.14C21.86,6.25,17.29,1.86,11.76,2z M13,16c0,0.55-0.45,1-1,1s-1-0.45-1-1
			v-4c0-0.55,0.45-1,1-1s1,0.45,1,1V16z M13.23,8.24c-0.02,0.08-0.04,0.16-0.08,0.24c-0.03,0.07-0.07,0.15-0.11,0.21
			c-0.05,0.07-0.1,0.14-0.16,0.19C12.65,9.12,12.33,9.25,12,9.25s-0.65-0.13-0.88-0.37c-0.06-0.05-0.11-0.12-0.16-0.19
			c-0.04-0.06-0.08-0.14-0.11-0.21c-0.04-0.08-0.06-0.16-0.08-0.24C10.76,8.16,10.75,8.08,10.75,8c0-0.33,0.13-0.65,0.37-0.88
			c0.05-0.06,0.12-0.11,0.19-0.16c0.06-0.04,0.14-0.08,0.21-0.11c0.08-0.04,0.16-0.06,0.24-0.08c0.4-0.08,0.83,0.06,1.12,0.35
			c0.24,0.23,0.37,0.55,0.37,0.88C13.25,8.08,13.24,8.16,13.23,8.24z"/>
	</g>
</g>
</svg>
