<?xml version="1.0" standalone="no"?>
<!DOCTYPE svg PUBLIC "-//W3C//DTD SVG 20010904//EN"
 "http://www.w3.org/TR/2001/REC-SVG-20010904/DTD/svg10.dtd">
<svg version="1.0" xmlns="http://www.w3.org/2000/svg"
 width="154.000000pt" height="154.000000pt" viewBox="0 0 154.000000 154.000000"
 preserveAspectRatio="xMidYMid meet">
<metadata>
Created by potrace 1.16, written by Peter Selinger 2001-2019
</metadata>
<g transform="translate(0.000000,154.000000) scale(0.100000,-0.100000)"
fill="#FFF" stroke="none">
<path d="M484 1259 c-38 -11 -119 -81 -139 -120 -35 -67 -39 -155 -10 -231 4
-10 -4 -19 -24 -28 -42 -17 -97 -81 -111 -127 -7 -24 -10 -95 -8 -189 3 -145
4 -152 31 -192 15 -23 46 -54 69 -69 l41 -28 216 -3 c249 -4 273 0 340 63 l46
43 152 4 151 3 39 31 c62 50 73 82 73 217 0 134 -7 156 -70 209 -38 33 -39 36
-30 69 19 64 -4 141 -57 191 -108 103 -288 61 -333 -78 -7 -21 -10 -61 -7 -94
l5 -57 -28 10 c-27 10 -27 11 -14 43 17 39 18 114 4 166 -29 102 -135 179
-244 177 -34 0 -75 -5 -92 -10z m174 -68 c95 -49 136 -154 97 -249 -63 -149
-264 -166 -349 -29 -62 101 -20 235 89 283 44 19 120 17 163 -5z m450 -105
c98 -51 116 -166 37 -235 -47 -41 -91 -48 -147 -23 -55 24 -88 73 -88 129 0
99 114 173 198 129z m-701 -272 c51 -39 97 -54 161 -54 72 0 116 14 164 51 20
16 41 29 46 29 5 0 27 -13 49 -29 58 -42 73 -87 73 -226 0 -124 -8 -156 -48
-198 -51 -54 -65 -57 -277 -57 -221 0 -245 6 -293 68 -26 34 -27 41 -30 181
-3 139 -2 148 20 181 20 30 80 80 96 80 3 0 20 -11 39 -26z m857 -45 c25 -29
26 -37 26 -140 l0 -109 -34 -38 -34 -37 -134 -3 -133 -3 3 139 c2 107 0 149
-12 176 l-15 36 28 -15 c69 -35 164 -27 218 19 32 28 47 23 87 -25z"/>
<path d="M547 724 c-4 -4 -7 -38 -7 -75 l0 -68 -72 -3 c-70 -3 -73 -4 -73 -28
0 -24 3 -25 72 -28 l72 -3 3 -72 c3 -69 4 -72 28 -72 24 0 25 3 28 72 l3 72
72 3 c69 3 72 4 72 28 0 24 -3 25 -72 28 l-72 3 -3 72 c-3 64 -5 72 -23 75
-12 2 -24 0 -28 -4z"/>
</g>
</svg>
