<?xml version="1.0" encoding="utf-8"?>
<!-- Generator: Adobe Illustrator 24.0.2, SVG Export Plug-In . SVG Version: 6.00 Build 0)  -->
<svg version="1.1" xmlns="http://www.w3.org/2000/svg" xmlns:xlink="http://www.w3.org/1999/xlink" x="0px" y="0px"
	 viewBox="0 0 24 24" style="enable-background:new 0 0 24 24;" xml:space="preserve">
<style type="text/css">
	.st0{fill:none;}
	.st1{fill:#ffffff;}
</style>
<g id="bounding_box">
	<rect class="st0" width="24" height="24"/>
</g>
<g id="design">
	<g>
		<g>
			<path class="st1" d="M20,9.03v10.94c0,0.57-0.46,1.03-1.03,1.03h-1.94C16.46,21,16,20.54,16,19.97V9.03C16,8.46,16.46,8,17.03,8
				h1.94C19.54,8,20,8.46,20,9.03z"/>
		</g>
		<g>
			<path class="st1" d="M14,5.17v14.66c0,0.64-0.53,1.17-1.17,1.17h-1.66C10.53,21,10,20.47,10,19.83V5.17C10,4.53,10.53,4,11.17,4
				h1.66C13.47,4,14,4.53,14,5.17z"/>
		</g>
		<g>
			<path class="st1" d="M8,12.85v7.3C8,20.62,7.62,21,7.15,21h-2.3C4.38,21,4,20.62,4,20.15v-7.3C4,12.38,4.38,12,4.85,12h2.3
				C7.62,12,8,12.38,8,12.85z"/>
		</g>
	</g>
</g>
</svg>
