<?xml version="1.0" encoding="utf-8"?>
<!-- Generator: Adobe Illustrator 24.0.2, SVG Export Plug-In . SVG Version: 6.00 Build 0)  -->
<svg version="1.1" xmlns="http://www.w3.org/2000/svg" xmlns:xlink="http://www.w3.org/1999/xlink" x="0px" y="0px"
	 viewBox="0 0 24 24" style="enable-background:new 0 0 24 24;" xml:space="preserve">
<style type="text/css">
	.st0{fill:none;}
	.st1{fill:#ffffff;}
</style>
<g id="bounding_box">
	<rect x="0" y="0" class="st0" width="24" height="24"/>
</g>
<g id="design">
	<g>
		<path class="st1" d="M20.99,6.35l-0.34,2.6c-0.6,4.6-3.19,8.68-7.1,11.19l-1.12,0.72C12.3,20.95,12.15,21,12,21
			c-0.14,0-0.28-0.04-0.41-0.12l-1.14-0.74c-3.91-2.51-6.5-6.59-7.1-11.19l-0.34-2.6C2.96,5.96,3.22,5.59,3.6,5.51
			c1.7-0.34,6.46-1.43,8-2.4c0.25-0.15,0.55-0.15,0.8,0c1.54,0.97,6.3,2.06,8,2.4C20.78,5.59,21.04,5.96,20.99,6.35z"/>
	</g>
</g>
</svg>
