<?xml version="1.0" standalone="no"?>
<!DOCTYPE svg PUBLIC "-//W3C//DTD SVG 20010904//EN"
 "http://www.w3.org/TR/2001/REC-SVG-20010904/DTD/svg10.dtd">
<svg version="1.0" xmlns="http://www.w3.org/2000/svg"
 width="512.000000pt" height="512.000000pt" viewBox="0 0 512.000000 512.000000"
 preserveAspectRatio="xMidYMid meet">
<metadata>
Created by potrace 1.16, written by Peter Selinger 2001-2019
</metadata>
<g transform="translate(0.000000,512.000000) scale(0.100000,-0.100000)"
fill="#000000" stroke="none">
<path d="M2319 5106 c-528 -93 -954 -460 -1123 -966 -63 -187 -68 -233 -73
-666 l-5 -391 -93 -6 c-54 -4 -115 -15 -145 -26 -101 -39 -185 -124 -221 -225
-19 -55 -19 -84 -17 -1309 l3 -1252 29 -58 c35 -68 118 -150 183 -180 l48 -22
1655 0 1655 0 48 22 c65 30 148 112 183 180 l29 58 3 1252 c2 1225 2 1254 -17
1309 -36 101 -120 186 -221 225 -30 11 -91 22 -145 26 l-93 6 -5 391 c-5 433
-10 479 -73 665 -163 487 -558 842 -1067 957 -98 22 -433 28 -538 10z m439
-181 c269 -44 507 -170 702 -371 136 -140 229 -292 289 -472 56 -168 63 -231
68 -634 l5 -368 -151 0 -151 0 0 323 c0 177 -5 360 -10 406 -53 416 -379 755
-793 821 -108 18 -312 8 -411 -19 -371 -102 -648 -422 -696 -802 -5 -46 -10
-229 -10 -406 l0 -323 -151 0 -151 0 5 368 c5 400 12 463 66 630 100 305 334
578 623 725 105 54 251 103 360 121 112 19 293 19 406 1z m17 -495 c159 -50
314 -160 409 -288 52 -71 105 -183 126 -269 18 -69 20 -111 20 -435 l0 -358
-770 0 -770 0 0 358 c0 279 4 371 15 420 68 289 304 520 600 588 89 20 281 12
370 -16z m1413 -1559 c47 -24 77 -56 97 -103 13 -33 15 -176 15 -1233 0 -1057
-2 -1200 -15 -1233 -21 -49 -52 -81 -100 -103 -38 -18 -105 -19 -1625 -19
-1520 0 -1587 1 -1625 19 -48 22 -79 54 -100 103 -13 33 -15 176 -15 1235 0
1143 1 1200 19 1238 20 44 50 74 96 98 27 15 190 16 1623 17 1546 0 1594 -1
1630 -19z"/>
<path d="M2440 2206 c-334 -93 -448 -516 -205 -758 l27 -28 -50 -242 c-46
-220 -49 -245 -37 -274 7 -18 22 -37 33 -43 14 -7 135 -11 357 -11 l336 0 24
25 c38 37 38 34 -22 323 l-46 223 35 37 c48 51 76 93 94 144 93 258 -49 534
-311 604 -61 17 -175 16 -235 0z m197 -181 c65 -19 139 -85 169 -150 52 -111
21 -233 -81 -322 -30 -25 -56 -56 -59 -69 -3 -12 14 -118 39 -235 25 -117 45
-214 45 -216 0 -1 -85 -3 -190 -3 -104 0 -190 2 -190 3 0 2 20 99 45 216 25
117 42 223 39 235 -3 13 -29 44 -59 69 -70 62 -105 131 -105 211 0 114 76 220
182 257 65 23 100 23 165 4z"/>
</g>
</svg>
