<?xml version="1.0" encoding="utf-8"?>
<!-- Generator: Adobe Illustrator 24.0.2, SVG Export Plug-In . SVG Version: 6.00 Build 0)  -->
<svg version="1.1" xmlns="http://www.w3.org/2000/svg" xmlns:xlink="http://www.w3.org/1999/xlink" x="0px" y="0px"
	 viewBox="0 0 24 24" style="enable-background:new 0 0 24 24;" xml:space="preserve">
<style type="text/css">
	.st0{fill:none;}
	.st1{fill:#ffffff;}
</style>
<g id="bounding_box">
	<rect class="st0" width="24" height="24"/>
</g>
<g id="design">
	<g>
		<path class="st1" d="M15.93,16.29c-0.22,0-0.45-0.08-0.64-0.23c-0.42-0.35-0.48-0.98-0.13-1.41c0.31-0.37,0.55-0.8,0.71-1.27
			c0.16-0.44,0.23-0.9,0.23-1.38s-0.08-0.94-0.23-1.38c-0.17-0.47-0.41-0.9-0.71-1.27c-0.35-0.42-0.29-1.06,0.13-1.41
			c0.43-0.35,1.06-0.29,1.41,0.13c0.46,0.55,0.82,1.19,1.06,1.88c0.23,0.65,0.35,1.34,0.35,2.04s-0.12,1.39-0.35,2.04
			c-0.25,0.7-0.6,1.33-1.06,1.88C16.5,16.16,16.22,16.29,15.93,16.29z"/>
		<path class="st1" d="M18.86,18.95c-0.23,0-0.45-0.08-0.64-0.23c-0.42-0.35-0.48-0.98-0.13-1.41c0.43-0.51,0.8-1.09,1.09-1.72
			C19.72,14.49,20,13.25,20,12c0-1.25-0.28-2.49-0.81-3.58c-0.3-0.63-0.67-1.21-1.09-1.72c-0.35-0.42-0.3-1.05,0.13-1.41
			c0.42-0.36,1.06-0.3,1.41,0.13c0.54,0.64,1,1.36,1.36,2.14c0.65,1.35,1,2.89,1,4.44s-0.35,3.09-1.01,4.45
			c-0.36,0.77-0.82,1.49-1.36,2.13C19.44,18.82,19.15,18.95,18.86,18.95z"/>
		<path class="st1" d="M8.07,16.29c-0.29,0-0.57-0.12-0.77-0.36c-0.46-0.55-0.81-1.18-1.06-1.88C6.01,13.39,5.89,12.7,5.89,12
			s0.12-1.39,0.35-2.04c0.25-0.7,0.61-1.33,1.06-1.88c0.35-0.42,0.98-0.48,1.41-0.13C9.13,8.3,9.19,8.93,8.84,9.35
			c-0.31,0.37-0.55,0.8-0.72,1.27c-0.15,0.44-0.23,0.9-0.23,1.38s0.08,0.94,0.23,1.38c0.17,0.47,0.41,0.9,0.71,1.27
			c0.35,0.43,0.29,1.06-0.13,1.41C8.52,16.21,8.29,16.29,8.07,16.29z"/>
		<path class="st1" d="M5.13,18.95c-0.29,0-0.57-0.12-0.77-0.36c-0.54-0.64-1-1.37-1.36-2.14C2.35,15.09,2,13.55,2,12
			s0.35-3.09,1.01-4.45c0.36-0.77,0.82-1.49,1.36-2.13c0.35-0.42,0.98-0.48,1.41-0.13C6.2,5.64,6.26,6.27,5.9,6.69
			c-0.43,0.51-0.8,1.09-1.09,1.72C4.28,9.51,4,10.75,4,12c0,1.25,0.28,2.49,0.81,3.58c0.3,0.63,0.67,1.21,1.09,1.72
			c0.35,0.42,0.3,1.05-0.13,1.41C5.59,18.87,5.36,18.95,5.13,18.95z"/>
		<path class="st1" d="M12,14c-0.27,0-0.52-0.05-0.77-0.15c-0.24-0.1-0.46-0.25-0.64-0.44c-0.1-0.09-0.18-0.19-0.26-0.3
			c-0.07-0.11-0.13-0.22-0.18-0.34c-0.05-0.12-0.09-0.25-0.11-0.38C10.01,12.26,10,12.13,10,12c0-0.13,0.01-0.26,0.04-0.39
			c0.02-0.13,0.06-0.25,0.11-0.37c0.05-0.13,0.11-0.24,0.19-0.35c0.07-0.11,0.15-0.21,0.25-0.31c0.09-0.09,0.19-0.17,0.3-0.24
			c0.11-0.07,0.22-0.14,0.34-0.19c0.13-0.05,0.25-0.08,0.38-0.11c0.65-0.13,1.34,0.08,1.8,0.54C13.79,10.96,14,11.48,14,12
			c0,0.13-0.01,0.26-0.04,0.39c-0.02,0.13-0.06,0.26-0.11,0.38c-0.05,0.12-0.11,0.23-0.19,0.34c-0.07,0.11-0.15,0.21-0.25,0.3
			c-0.18,0.19-0.4,0.34-0.64,0.44C12.52,13.95,12.27,14,12,14z"/>
	</g>
</g>
</svg>
