<?xml version="1.0" standalone="no"?>
<!DOCTYPE svg PUBLIC "-//W3C//DTD SVG 20010904//EN"
 "http://www.w3.org/TR/2001/REC-SVG-20010904/DTD/svg10.dtd">
<svg version="1.0" xmlns="http://www.w3.org/2000/svg"
 width="154.000000pt" height="154.000000pt" viewBox="0 0 154.000000 154.000000"
 preserveAspectRatio="xMidYMid meet">
<metadata>
Created by potrace 1.16, written by Peter Selinger 2001-2019
</metadata>
<g transform="translate(0.000000,154.000000) scale(0.100000,-0.100000)"
fill="#FFF" stroke="none">
<path d="M644 902 c-347 -201 -324 -186 -324 -225 0 -18 6 -40 12 -49 7 -9 60
-33 118 -54 58 -20 106 -38 108 -40 2 -1 -15 -36 -37 -76 -23 -41 -41 -85 -41
-97 0 -34 26 -76 55 -89 63 -29 105 -7 158 82 22 39 42 73 44 75 1 2 31 -21
65 -51 125 -108 155 -120 194 -77 18 20 19 43 22 333 3 329 0 387 -24 411 -34
34 -72 18 -350 -143z m314 -227 c1 -175 -1 -322 -6 -327 -4 -4 -53 30 -108 77
-61 53 -106 84 -118 83 -12 -2 -36 -34 -67 -87 -50 -88 -67 -105 -92 -95 -32
12 -27 38 23 126 28 50 50 97 48 106 -2 10 -47 31 -131 61 -70 25 -127 48
-127 51 0 10 554 329 565 326 6 -2 11 -119 13 -321z"/>
</g>
</svg>
