<?xml version="1.0" encoding="utf-8"?>
<!-- Generator: Adobe Illustrator 24.0.2, SVG Export Plug-In . SVG Version: 6.00 Build 0)  -->
<svg version="1.1" xmlns="http://www.w3.org/2000/svg" xmlns:xlink="http://www.w3.org/1999/xlink" x="0px" y="0px"
	 viewBox="0 0 24 24" style="enable-background:new 0 0 24 24;" xml:space="preserve">
<style type="text/css">
	.st0{fill:none;}
	.st1{fill:#ffffff;}
</style>
<g id="bounding_box">
	<rect class="st0" width="24" height="24"/>
</g>
<g id="design">
	<g>
		<path class="st1" d="M12.03,2c-4.39,0-7.96,3.61-7.96,8.05c0,0.59,0.05,1.13,0.17,1.64c0.24,1.26,0.81,2.47,1.65,3.49l5.37,6.46
			c0.19,0.23,0.48,0.36,0.77,0.36c0.3,0,0.58-0.13,0.77-0.36l5.38-6.47c0.83-1.01,1.4-2.22,1.64-3.45c0.12-0.53,0.18-1.08,0.18-1.67
			C20,5.61,16.43,2,12.03,2z M15.71,8.71l-4,4C11.51,12.9,11.26,13,11,13s-0.51-0.1-0.71-0.29l-2-2c-0.39-0.39-0.39-1.03,0-1.42
			c0.39-0.39,1.03-0.39,1.42,0l1.29,1.3l3.29-3.3c0.39-0.39,1.03-0.39,1.42,0C16.1,7.68,16.1,8.32,15.71,8.71z"/>
	</g>
</g>
</svg>
