<?xml version="1.0" standalone="no"?>
<!DOCTYPE svg PUBLIC "-//W3C//DTD SVG 20010904//EN"
 "http://www.w3.org/TR/2001/REC-SVG-20010904/DTD/svg10.dtd">
<svg version="1.0" xmlns="http://www.w3.org/2000/svg"
 width="154.000000pt" height="154.000000pt" viewBox="0 0 154.000000 154.000000"
 preserveAspectRatio="xMidYMid meet">
<metadata>
Created by potrace 1.16, written by Peter Selinger 2001-2019
</metadata>
<g transform="translate(0.000000,154.000000) scale(0.100000,-0.100000)"
fill="#FFF" stroke="none">
<path d="M176 1224 c-8 -22 -9 -19 26 -59 l31 -37 -19 -31 c-18 -30 -19 -54
-19 -327 0 -277 1 -297 20 -328 11 -18 34 -42 51 -53 29 -18 53 -19 381 -19
l349 0 34 -35 c22 -22 42 -35 55 -33 32 5 30 37 -5 73 l-31 32 21 36 c12 20
24 60 27 90 l6 55 111 -50 c61 -28 121 -53 134 -55 l22 -5 0 292 0 292 -22 -5
c-13 -2 -74 -27 -135 -55 l-113 -51 0 32 c0 90 -54 171 -125 188 -22 5 -185 8
-368 7 l-327 -1 -33 31 c-36 35 -62 41 -71 16z m793 -117 c13 -6 34 -25 45
-40 20 -27 21 -43 24 -282 2 -207 0 -260 -12 -289 -8 -20 -19 -36 -23 -36 -4
0 -157 149 -338 330 l-330 330 305 0 c222 0 312 -4 329 -13z m-324 -685 c-333
-3 -349 0 -379 62 -15 32 -17 67 -14 299 2 211 6 267 17 281 13 16 44 -12 343
-311 l328 -328 -295 -3z m665 347 c0 -187 -1 -201 -17 -195 -10 4 -57 23 -105
44 l-88 37 0 115 0 115 98 42 c53 23 100 42 105 43 4 0 7 -90 7 -201z"/>
</g>
</svg>
