<?xml version="1.0" standalone="no"?>
<!DOCTYPE svg PUBLIC "-//W3C//DTD SVG 20010904//EN"
 "http://www.w3.org/TR/2001/REC-SVG-20010904/DTD/svg10.dtd">
<svg version="1.0" xmlns="http://www.w3.org/2000/svg"
 width="154.000000pt" height="154.000000pt" viewBox="0 0 154.000000 154.000000"
 preserveAspectRatio="xMidYMid meet">
<metadata>
Created by potrace 1.16, written by Peter Selinger 2001-2019
</metadata>
<g transform="translate(0.000000,154.000000) scale(0.100000,-0.100000)"
fill="#FFF" stroke="none">
<path d="M315 1171 c-48 -12 -72 -28 -97 -68 -23 -38 -23 -41 -23 -333 0 -277
1 -297 20 -328 11 -18 34 -42 51 -53 29 -18 53 -19 384 -19 l352 0 38 38 c39
38 60 91 60 149 l0 32 113 -51 c61 -28 122 -53 135 -55 l22 -5 0 292 0 292
-22 -5 c-13 -2 -74 -27 -135 -55 l-113 -51 0 32 c0 90 -54 171 -125 187 -47
11 -616 11 -660 1z m654 -64 c13 -6 34 -25 45 -40 20 -27 21 -40 21 -297 0
-257 -1 -270 -21 -297 -38 -52 -47 -53 -367 -53 -334 0 -352 3 -380 63 -15 30
-17 72 -17 287 0 282 5 310 64 336 43 18 619 20 655 1z m341 -338 c0 -187 -1
-201 -17 -195 -10 4 -57 23 -105 44 l-88 37 0 115 0 115 98 42 c53 23 100 42
105 43 4 0 7 -90 7 -201z"/>
</g>
</svg>
