<?xml version="1.0" standalone="no"?>
<!DOCTYPE svg PUBLIC "-//W3C//DTD SVG 20010904//EN"
 "http://www.w3.org/TR/2001/REC-SVG-20010904/DTD/svg10.dtd">
<svg version="1.0" xmlns="http://www.w3.org/2000/svg"
 width="164.000000pt" height="164.000000pt" viewBox="0 0 164.000000 164.000000"
 preserveAspectRatio="xMidYMid meet">

<g transform="translate(0.000000,164.000000) scale(0.100000,-0.100000)"
fill="#fff" stroke="none">
<path d="M324 1180 c-53 -21 -54 -31 -54 -362 l0 -307 24 -28 24 -28 376 0
375 0 23 23 c20 20 24 35 28 131 l5 109 120 -109 120 -108 3 159 c1 88 1 232
0 320 l-3 159 -120 -108 -120 -109 -5 109 c-8 167 27 154 -413 156 -199 1
-372 -2 -383 -7z"/>
</g>
</svg>
