<?xml version="1.0" standalone="no"?>
<!DOCTYPE svg PUBLIC "-//W3C//DTD SVG 20010904//EN"
 "http://www.w3.org/TR/2001/REC-SVG-20010904/DTD/svg10.dtd">
<svg version="1.0" xmlns="http://www.w3.org/2000/svg"
 width="164.000000pt" height="164.000000pt" viewBox="0 0 164.000000 164.000000"
 preserveAspectRatio="xMidYMid meet">

<g transform="translate(0.000000,164.000000) scale(0.100000,-0.100000)"
fill="#fff" stroke="none">
<path d="M721 836 c-427 -428 -493 -497 -481 -510 7 -9 18 -16 24 -16 6 0 233
222 504 493 491 491 522 527 463 527 -9 0 -239 -222 -510 -494z"/>
<path d="M354 1176 c-17 -8 -34 -21 -38 -31 -8 -23 -8 -640 1 -649 7 -7 693
672 693 686 0 5 -141 8 -312 8 -240 -1 -320 -4 -344 -14z"/>
<path d="M1283 1031 l-123 -112 0 95 c0 52 -4 97 -8 100 -5 3 -159 -146 -343
-330 l-334 -335 317 3 c389 4 361 -8 366 158 l4 109 122 -111 121 -112 3 162
c1 89 1 235 0 324 l-3 162 -122 -113z"/>
</g>
</svg>
