<?xml version="1.0" standalone="no"?>
<!DOCTYPE svg PUBLIC "-//W3C//DTD SVG 20010904//EN"
 "http://www.w3.org/TR/2001/REC-SVG-20010904/DTD/svg10.dtd">
<svg version="1.0" xmlns="http://www.w3.org/2000/svg"
 width="154.000000pt" height="154.000000pt" viewBox="0 0 154.000000 154.000000"
 preserveAspectRatio="xMidYMid meet">
<metadata>
Created by potrace 1.16, written by Peter Selinger 2001-2019
</metadata>
<g transform="translate(0.000000,154.000000) scale(0.100000,-0.100000)"
fill="#FFF" stroke="none">
<path d="M620 1301 c-90 -29 -141 -60 -207 -127 -140 -140 -187 -356 -116
-537 22 -56 73 -136 110 -170 l31 -28 -25 -96 c-13 -53 -22 -102 -19 -109 9
-24 48 -15 161 37 105 48 111 50 175 44 79 -8 191 13 267 51 62 30 152 109
192 168 188 279 53 667 -267 766 -83 26 -224 26 -302 1z m333 -78 c213 -101
316 -350 231 -563 -27 -68 -56 -110 -115 -166 -95 -89 -218 -130 -354 -118
-67 5 -74 4 -155 -34 -47 -22 -87 -38 -89 -37 -1 2 5 38 15 80 l18 75 -46 48
c-55 58 -79 94 -102 152 -92 234 33 495 279 583 38 13 73 17 150 14 88 -2 108
-6 168 -34z"/>
</g>
</svg>
