<?xml version="1.0" encoding="UTF-8"?>
<svg xmlns="http://www.w3.org/2000/svg" xmlns:xlink="http://www.w3.org/1999/xlink" width="32pt" height="32pt" viewBox="0 0 32 32" version="1.1">
<g id="surface1">
<path style=" stroke:none;fill-rule:nonzero;fill:rgb(16.862745%,16.470588%,16.078431%);fill-opacity:1;" d="M 8.742188 7.289062 L 18.730469 7.289062 L 24.589844 2.527344 C 24.605469 2.519531 24.621094 2.507812 24.632812 2.496094 C 25.054688 2.214844 25.65625 1.980469 26.222656 1.980469 C 26.476562 1.980469 26.730469 2.027344 26.964844 2.136719 C 27.210938 2.246094 27.425781 2.425781 27.597656 2.679688 C 27.820312 3.007812 27.953125 3.460938 27.953125 4.070312 L 27.953125 24.550781 C 27.953125 25.15625 27.820312 25.617188 27.597656 25.941406 C 27.425781 26.195312 27.210938 26.371094 26.964844 26.484375 C 26.726562 26.59375 26.476562 26.636719 26.222656 26.636719 C 25.660156 26.636719 25.058594 26.40625 24.640625 26.125 L 19.050781 22.523438 L 21.203125 27.207031 C 21.324219 27.464844 21.210938 27.773438 20.949219 27.890625 C 20.878906 27.925781 20.804688 27.941406 20.734375 27.933594 L 14.539062 27.933594 C 14.3125 27.933594 14.121094 27.792969 14.046875 27.59375 L 11.308594 21.644531 L 8.742188 21.644531 C 5.632812 21.644531 3.6875 19.816406 2.847656 17.460938 C 2.523438 16.554688 2.367188 15.5625 2.367188 14.566406 C 2.375 13.574219 2.539062 12.585938 2.867188 11.664062 C 3.734375 9.210938 5.714844 7.285156 8.742188 7.285156 Z M 18.914062 8.328125 L 8.742188 8.328125 C 6.230469 8.328125 4.578125 9.949219 3.84375 12.011719 C 3.554688 12.820312 3.40625 13.699219 3.402344 14.574219 C 3.394531 15.445312 3.535156 16.3125 3.820312 17.113281 C 4.527344 19.082031 6.144531 20.609375 8.734375 20.609375 L 11.632812 20.609375 C 11.832031 20.609375 12.019531 20.71875 12.105469 20.910156 L 14.859375 26.902344 L 19.917969 26.902344 L 17.371094 21.371094 C 17.289062 21.210938 17.289062 21.011719 17.394531 20.84375 C 17.546875 20.601562 17.867188 20.535156 18.113281 20.691406 L 25.203125 25.261719 C 25.476562 25.449219 25.871094 25.605469 26.222656 25.605469 C 26.339844 25.605469 26.449219 25.589844 26.53125 25.550781 C 26.609375 25.515625 26.683594 25.457031 26.738281 25.375 C 26.847656 25.207031 26.914062 24.949219 26.914062 24.554688 L 26.914062 4.074219 C 26.914062 3.683594 26.847656 3.421875 26.738281 3.257812 C 26.683594 3.175781 26.609375 3.113281 26.53125 3.082031 C 26.445312 3.042969 26.339844 3.027344 26.21875 3.027344 C 25.871094 3.027344 25.496094 3.175781 25.21875 3.355469 L 19.265625 8.195312 C 19.171875 8.28125 19.046875 8.339844 18.90625 8.339844 Z M 18.914062 8.328125 "/>
<path style=" stroke:none;fill-rule:nonzero;fill:rgb(16.862745%,16.470588%,16.078431%);fill-opacity:1;" d="M 19.757812 24.058594 C 19.878906 24.320312 19.761719 24.628906 19.503906 24.742188 C 19.242188 24.867188 18.933594 24.75 18.820312 24.488281 L 16.058594 18.464844 C 15.9375 18.207031 16.050781 17.898438 16.3125 17.78125 C 16.570312 17.660156 16.878906 17.773438 16.996094 18.035156 Z M 19.757812 24.058594 "/>
</g>
</svg>
