<?xml version="1.0" encoding="utf-8"?>
<!-- Generator: Adobe Illustrator 24.1.2, SVG Export Plug-In . SVG Version: 6.00 Build 0)  -->
<svg version="1.1" id="Warstwa_1" xmlns="http://www.w3.org/2000/svg" xmlns:xlink="http://www.w3.org/1999/xlink" x="0px" y="0px"
	 viewBox="0 0 430 430" style="enable-background:new 0 0 430 430;" xml:space="preserve">
<style type="text/css">
	.st0{fill:#ffffff;}
	.st1{fill:#ffffff;}
	.st2{fill:#ffffff;}
	.st3{fill:none;}
	.st4{fill:#08A385;}
	.st5{fill:none;stroke:#08A385;stroke-width:12;stroke-linecap:round;stroke-linejoin:round;stroke-miterlimit:10;}
	.st6{fill:none;stroke:#ffffff;stroke-width:12;stroke-linecap:round;stroke-linejoin:round;stroke-miterlimit:10;}
</style>
<g>
	<path class="st1" d="M323.55,154.29c0.02-0.08,0.04-0.17,0.05-0.25c0.02-0.11,0.04-0.22,0.06-0.32c0.01-0.08,0.02-0.16,0.03-0.24
		c0.01-0.11,0.02-0.23,0.03-0.34c0-0.08,0-0.15,0-0.23c0-0.12,0-0.24-0.01-0.36c0-0.07-0.01-0.15-0.02-0.22
		c-0.01-0.12-0.02-0.24-0.04-0.36c-0.01-0.08-0.03-0.16-0.04-0.24c-0.02-0.11-0.04-0.22-0.07-0.33c-0.02-0.09-0.05-0.17-0.08-0.26
		c-0.03-0.1-0.06-0.2-0.1-0.3c-0.04-0.1-0.08-0.19-0.12-0.29c-0.03-0.06-0.05-0.13-0.08-0.19c-0.01-0.03-0.03-0.05-0.04-0.07
		c-0.01-0.03-0.02-0.05-0.03-0.08c-0.01-0.02-0.03-0.04-0.04-0.07c-0.17-0.32-0.36-0.63-0.57-0.91c-0.02-0.02-0.04-0.04-0.05-0.07
		c-0.23-0.29-0.48-0.55-0.75-0.79c-0.02-0.02-0.04-0.03-0.06-0.05c-0.28-0.24-0.57-0.45-0.88-0.63c-0.03-0.02-0.06-0.03-0.09-0.05
		c-0.31-0.17-0.64-0.32-0.97-0.44c-0.02-0.01-0.03-0.02-0.05-0.02l-25.8-8.62c-3.14-1.05-6.54,0.65-7.59,3.79
		c-1.05,3.14,0.65,6.54,3.79,7.59l11.51,3.84l-179.14,83.32l4.2-12.59c1.05-3.14-0.65-6.54-3.79-7.59
		c-3.14-1.05-6.54,0.65-7.59,3.79l-8.62,25.8c-0.02,0.06-0.03,0.12-0.05,0.17c-0.03,0.1-0.06,0.21-0.09,0.32
		c-0.02,0.08-0.04,0.17-0.05,0.25c-0.02,0.11-0.04,0.22-0.06,0.33c-0.01,0.08-0.02,0.16-0.03,0.24c-0.01,0.11-0.02,0.23-0.03,0.34
		c0,0.08,0,0.15,0,0.23c0,0.12,0,0.24,0.01,0.36c0,0.08,0.01,0.15,0.02,0.23c0.01,0.12,0.02,0.24,0.04,0.35
		c0.01,0.08,0.03,0.16,0.04,0.24c0.02,0.11,0.04,0.22,0.07,0.33c0.02,0.09,0.05,0.18,0.08,0.27c0.03,0.1,0.06,0.19,0.09,0.29
		c0.04,0.1,0.08,0.2,0.12,0.3c0.03,0.06,0.05,0.12,0.08,0.19c0.01,0.02,0.02,0.03,0.03,0.05c0.02,0.03,0.03,0.07,0.04,0.1
		c0.03,0.06,0.07,0.1,0.1,0.16c0.13,0.25,0.28,0.49,0.45,0.71c0.06,0.08,0.12,0.15,0.18,0.23c0.2,0.25,0.41,0.47,0.65,0.68
		c0.03,0.03,0.05,0.06,0.08,0.08c0.27,0.23,0.56,0.43,0.86,0.61c0.07,0.04,0.15,0.08,0.23,0.12c0.25,0.13,0.5,0.25,0.76,0.34
		c0.06,0.02,0.11,0.05,0.16,0.07l25.8,8.62c0.63,0.21,1.27,0.31,1.9,0.31c2.51,0,4.85-1.59,5.69-4.1c1.05-3.14-0.65-6.54-3.79-7.59
		l-11.51-3.84l179.14-83.32l-4.2,12.59c-1.05,3.14,0.65,6.54,3.79,7.59c0.63,0.21,1.27,0.31,1.9,0.31c2.51,0,4.85-1.59,5.69-4.1
		l8.62-25.8c0.02-0.06,0.03-0.12,0.05-0.18C323.49,154.5,323.52,154.4,323.55,154.29z"/>
	<path class="st0" d="M375.12,102.25H54.88c-3.31,0-6,2.69-6,6v186.81c0,3.31,2.69,6,6,6h60.19l-23.49,15.7
		c-2.75,1.84-3.5,5.57-1.65,8.32c1.16,1.73,3.06,2.67,4.99,2.67c1.15,0,2.3-0.33,3.33-1.01l38.42-25.67h33.68v1.8c0,3.31,2.69,6,6,6
		h78.69c3.31,0,6-2.69,6-6v-1.8h32.31l38.42,25.67c1.02,0.68,2.18,1.01,3.33,1.01c1.94,0,3.84-0.94,4.99-2.67
		c1.84-2.75,1.1-6.48-1.65-8.32l-23.49-15.7h60.19c3.31,0,6-2.69,6-6V108.25C381.12,104.94,378.43,102.25,375.12,102.25z
		 M369.12,289.06h-73.98c-0.01,0-0.01,0-0.02,0H134.88c-0.01,0-0.02,0-0.03,0H60.88V114.25h308.24V289.06z"/>
</g>
</svg>
