<?xml version="1.0" standalone="no"?>
<!DOCTYPE svg PUBLIC "-//W3C//DTD SVG 20010904//EN"
 "http://www.w3.org/TR/2001/REC-SVG-20010904/DTD/svg10.dtd">
<svg version="1.0" xmlns="http://www.w3.org/2000/svg"
 width="154.000000pt" height="154.000000pt" viewBox="0 0 154.000000 154.000000"
 preserveAspectRatio="xMidYMid meet">
<metadata>
Created by potrace 1.16, written by Peter Selinger 2001-2019
</metadata>
<g transform="translate(0.000000,154.000000) scale(0.100000,-0.100000)"
fill="#FFF" stroke="none">
<path d="M617 1025 c-195 -37 -362 -140 -461 -283 -25 -36 -29 -51 -30 -118
-1 -72 0 -77 28 -100 28 -25 31 -25 176 -22 189 4 188 3 192 132 l3 91 241 3
242 2 4 -90 c6 -133 8 -134 196 -138 137 -3 149 -2 174 18 33 25 44 85 28 154
-21 93 -148 221 -286 287 -142 67 -350 94 -507 64z m283 -59 c179 -33 324
-117 424 -248 24 -32 27 -44 24 -95 l-3 -58 -125 -3 c-151 -3 -150 -4 -150
113 0 50 -5 86 -12 93 -9 9 -87 12 -289 12 -244 0 -278 -2 -290 -16 -9 -10
-16 -53 -19 -108 l-5 -91 -124 -3 c-148 -3 -156 1 -147 71 4 35 16 62 42 97
142 186 417 282 674 236z"/>
</g>
</svg>
