<?xml version="1.0" encoding="utf-8"?>
<!-- Generator: Adobe Illustrator 24.0.2, SVG Export Plug-In . SVG Version: 6.00 Build 0)  -->
<svg version="1.1" xmlns="http://www.w3.org/2000/svg" xmlns:xlink="http://www.w3.org/1999/xlink" x="0px" y="0px"
	 viewBox="0 0 24 24" style="enable-background:new 0 0 24 24;" xml:space="preserve">
<style type="text/css">
	.st0{fill:none;}
	.st1{fill:#ffffff;}
</style>
<g id="bounding_box">
	<rect class="st0" width="24" height="24"/>
</g>
<g id="design">
	<g>
		<path class="st1" d="M22.97,12.2c0.06,0.77-0.22,1.52-0.77,2.06l-2.2,2.2c-0.33,0.33-0.77,0.5-1.21,0.5c-0.33,0-0.68-0.1-0.97-0.3
			l-1.73-1.21c-0.84-0.59-1.26-1.62-1.09-2.63l0.11-1.58c-2.04-0.43-4.18-0.42-6.24,0.02L9,12.89c0.16,0.94-0.27,1.97-1.11,2.56
			l-1.72,1.21c-0.68,0.47-1.6,0.39-2.18-0.2l-2.2-2.2c-0.55-0.54-0.83-1.29-0.78-2.06c0.06-0.77,0.44-1.48,1.06-1.95
			c5.84-4.42,14.01-4.42,19.85,0C22.54,10.72,22.92,11.43,22.97,12.2z"/>
	</g>
</g>
</svg>
