<?xml version="1.0" standalone="no"?>
<!DOCTYPE svg PUBLIC "-//W3C//DTD SVG 20010904//EN"
 "http://www.w3.org/TR/2001/REC-SVG-20010904/DTD/svg10.dtd">
<svg version="1.0" xmlns="http://www.w3.org/2000/svg"
 width="154.000000pt" height="154.000000pt" viewBox="0 0 154.000000 154.000000"
 preserveAspectRatio="xMidYMid meet">
<metadata>
Created by potrace 1.16, written by Peter Selinger 2001-2019
</metadata>
<g transform="translate(0.000000,154.000000) scale(0.100000,-0.100000)"
fill="#000000" stroke="none">
<path d="M656 1259 c-82 -13 -187 -72 -247 -137 -106 -115 -134 -229 -127
-501 5 -180 17 -221 86 -283 71 -64 206 -87 239 -41 15 19 19 508 5 530 -34
53 -172 30 -250 -41 l-24 -21 8 65 c13 115 52 198 127 267 224 207 602 119
700 -162 8 -22 17 -69 21 -105 l8 -65 -24 21 c-61 56 -154 83 -215 63 -46 -15
-53 -50 -53 -284 0 -222 8 -271 46 -285 57 -22 157 4 214 56 70 63 84 107 88
279 8 275 -22 392 -126 506 -109 119 -285 170 -476 138z m-98 -697 c3 -260 8
-243 -71 -221 -43 12 -101 59 -122 100 -22 42 -29 128 -15 193 15 74 63 130
129 150 80 26 76 39 79 -222z m531 209 c56 -28 91 -80 103 -152 25 -151 -42
-264 -170 -285 -35 -5 -40 -4 -45 17 -11 41 -8 409 4 430 12 23 49 20 108 -10z"/>
</g>
</svg>
