<?xml version="1.0" encoding="UTF-8"?>
<svg xmlns="http://www.w3.org/2000/svg" xmlns:xlink="http://www.w3.org/1999/xlink" width="40pt" height="39pt" viewBox="0 0 40 39" version="1.1">
<g id="surface1">
<path style="fill:#FFF;stroke-width:3.12;stroke-linecap:round;stroke-linejoin:round;stroke:rgb(16.862745%,16.470588%,16.078431%);stroke-opacity:1;stroke-miterlimit:2.61313;" d="M 67.621948 69.702431 L 81.279629 83.373349 " transform="matrix(0.416146,0,0,0.405743,0,0)"/>
<path style="fill:#FFF;stroke-width:3.12;stroke-linecap:round;stroke-linejoin:round;stroke:rgb(16.862745%,16.470588%,16.078431%);stroke-opacity:1;stroke-miterlimit:2.61313;" d="M 81.279629 69.702431 L 67.621948 83.373349 " transform="matrix(0.416146,0,0,0.405743,0,0)"/>
<path style="fill:#FFF;stroke-width:3.12;stroke-linecap:round;stroke-linejoin:round;stroke:rgb(16.862745%,16.470588%,16.078431%);stroke-opacity:1;stroke-miterlimit:2.61313;" d="M 61.999301 83.431114 C 49.092558 83.431114 37.105713 83.431114 24.19897 83.431114 C 7.002495 83.431114 15.910494 55.954493 27.390456 50.486125 C 30.647648 48.608781 31.849149 46.654417 29.737136 43.631411 C 29.455535 43.198178 29.202093 42.745689 28.948652 42.302829 C 27.887952 40.483249 27.212108 38.461493 26.836639 36.381973 C 26.536264 34.812706 26.43301 33.195301 26.517491 31.568269 C 27.099467 20.727808 35.9136 12.563767 46.698944 12.438611 C 57.493674 12.563767 66.307807 20.727808 66.880397 31.568269 C 66.974264 33.195301 66.861623 34.812706 66.561248 36.381973 C 66.185779 38.461493 65.509935 40.483249 64.449236 42.302829 C 64.195794 42.745689 63.942353 43.198178 63.660751 43.631411 C 61.548738 46.654417 62.750239 48.608781 66.007432 50.486125 C 70.682019 52.710056 75.018685 58.765696 77.252725 65.090902 " transform="matrix(0.416146,0,0,0.405743,0,0)"/>
<path style="fill:#FFF;stroke-width:3.12;stroke-linecap:round;stroke-linejoin:round;stroke:rgb(16.862745%,16.470588%,16.078431%);stroke-opacity:1;stroke-miterlimit:2.61313;" d="M 27.146401 37.980123 C 26.592584 35.919858 26.367303 33.782573 26.479944 31.645289 C 27.071307 20.506378 36.589444 11.947613 47.731483 12.554139 C 58.873523 13.141411 67.434213 22.662917 66.833463 33.801828 C 66.2421 44.940738 56.723963 53.499504 45.581924 52.902604 C 43.047509 52.767821 40.569414 52.161294 38.269667 51.111907 " transform="matrix(0.416146,0,0,0.405743,0,0)"/>
</g>
</svg>
