<?xml version="1.0" encoding="utf-8"?>
<!-- Generator: Adobe Illustrator 24.0.2, SVG Export Plug-In . SVG Version: 6.00 Build 0)  -->
<svg version="1.1" xmlns="http://www.w3.org/2000/svg" xmlns:xlink="http://www.w3.org/1999/xlink" x="0px" y="0px"
	 viewBox="0 0 24 24" style="enable-background:new 0 0 24 24;" xml:space="preserve">
<style type="text/css">
	.st0{fill:none;}
	.st1{fill:#ffffff;}
</style>
<g id="bounding_box">
	<rect class="st0" width="24" height="24"/>
</g>
<g id="design">
	<g>
		<path class="st1" d="M12,2h-0.24c-2.67,0.07-5.16,1.17-7,3.1C2.92,7.04,1.94,9.57,2,12.24C2.13,17.67,6.59,22,12,22h0.24
			c2.67-0.07,5.16-1.17,7-3.1c1.84-1.94,2.82-4.47,2.76-7.14C21.87,6.33,17.41,2,12,2z M15.96,14.54c0.39,0.39,0.39,1.03,0,1.42
			c-0.2,0.19-0.45,0.29-0.71,0.29s-0.51-0.1-0.71-0.29L12,13.42l-2.54,2.54c-0.2,0.19-0.45,0.29-0.71,0.29s-0.51-0.1-0.71-0.29
			c-0.39-0.39-0.39-1.03,0-1.42L10.58,12L8.04,9.46c-0.39-0.39-0.39-1.03,0-1.42c0.39-0.39,1.03-0.39,1.42,0L12,10.58l2.54-2.54
			c0.39-0.39,1.03-0.39,1.42,0c0.39,0.39,0.39,1.03,0,1.42L13.42,12L15.96,14.54z"/>
	</g>
</g>
</svg>
