<?xml version="1.0" encoding="UTF-8"?>
<svg xmlns="http://www.w3.org/2000/svg" xmlns:xlink="http://www.w3.org/1999/xlink" width="32pt" height="32pt" viewBox="0 0 32 32" version="1.1">
<g id="surface1">
<path style="fill:none;stroke-width:2.42;stroke-linecap:round;stroke-linejoin:round;stroke:rgb(16.862745%,16.470588%,16.078431%);stroke-opacity:1;stroke-miterlimit:2.61313;" d="M 58.336272 45.3676 L 58.336272 60.356654 " transform="matrix(0.429219,0,0,0.429219,0,0)"/>
<path style="fill:none;stroke-width:2.42;stroke-linecap:round;stroke-linejoin:round;stroke:rgb(16.862745%,16.470588%,16.078431%);stroke-opacity:1;stroke-miterlimit:2.61313;" d="M 65.826248 52.857576 L 50.837194 52.857576 " transform="matrix(0.429219,0,0,0.429219,0,0)"/>
<path style="fill:none;stroke-width:2.42;stroke-linecap:round;stroke-linejoin:round;stroke:rgb(16.862745%,16.470588%,16.078431%);stroke-opacity:1;stroke-miterlimit:2.61313;" d="M 42.218715 51.920192 C 41.235826 50.800791 40.152828 49.90891 39.024326 49.371961 C 37.06765 48.25256 36.357785 47.078554 37.6228 45.276591 C 37.786615 45.021768 37.950429 44.757845 38.086942 44.493921 C 38.723999 43.401822 39.133536 42.200513 39.351956 40.962802 C 39.533972 40.034518 39.588577 39.06073 39.543073 38.086942 C 39.197242 31.634459 33.936967 26.747317 27.502685 26.683611 C 21.068404 26.747317 15.808129 31.616257 15.462297 38.086942 C 15.407692 39.06073 15.471398 40.016316 15.653415 40.962802 C 15.871834 42.200513 16.281371 43.401822 16.909328 44.493921 C 17.064042 44.757845 17.209655 45.030869 17.382571 45.276591 C 18.638484 47.078554 17.919519 48.25256 15.981044 49.371961 C 9.137226 52.620955 3.822345 69.011536 14.078972 69.011536 C 23.034181 69.011536 31.98029 69.011536 40.917297 69.011536 " transform="matrix(0.429219,0,0,0.429219,0,0)"/>
<path style="fill:none;stroke-width:2.42;stroke-linecap:round;stroke-linejoin:round;stroke:rgb(16.862745%,16.470588%,16.078431%);stroke-opacity:1;stroke-miterlimit:2.61313;" d="M 39.16994 41.918388 C 39.497569 40.689777 39.643182 39.415662 39.570376 38.141547 C 39.224545 31.497946 33.536531 26.401486 26.902031 26.747317 C 20.258431 27.102249 15.16197 32.781162 15.507801 39.415662 C 15.862733 46.059262 21.541647 51.155723 28.176146 50.809891 C 29.686883 50.727984 31.170317 50.373052 32.544541 49.735994 " transform="matrix(0.429219,0,0,0.429219,0,0)"/>
<path style="fill:none;stroke-width:2.42;stroke-linecap:round;stroke-linejoin:round;stroke:rgb(16.862745%,16.470588%,16.078431%);stroke-opacity:1;stroke-miterlimit:2.61313;" d="M 66.008265 31.452442 C 64.85246 29.932605 63.505539 28.703994 62.104012 28.030533 C 60.147335 26.911132 59.437471 25.737126 60.702485 23.944264 C 60.8663 23.68034 61.030115 23.416416 61.166627 23.152492 C 61.803685 22.060393 62.213222 20.859085 62.431642 19.621373 C 62.613658 18.693089 62.668263 17.719301 62.622759 16.745513 C 62.276928 10.29303 57.016652 5.405889 50.582371 5.342183 C 44.148089 5.405889 38.887814 10.283929 38.541983 16.745513 C 38.487378 17.719301 38.551084 18.683988 38.7331 19.621373 C 38.95152 20.859085 39.361057 22.060393 39.989014 23.152492 C 40.143728 23.416416 40.289341 23.689441 40.462256 23.944264 C 41.71817 25.737126 40.999205 26.911132 39.06073 28.030533 C 38.086942 28.485574 37.149557 29.222741 36.275878 30.123722 " transform="matrix(0.429219,0,0,0.429219,0,0)"/>
<path style="fill:none;stroke-width:2.42;stroke-linecap:round;stroke-linejoin:round;stroke:rgb(16.862745%,16.470588%,16.078431%);stroke-opacity:1;stroke-miterlimit:2.61313;" d="M 62.240524 20.576959 C 62.568154 19.348348 62.713767 18.083334 62.640961 16.800118 C 62.286028 10.156518 56.607115 5.060057 49.972616 5.405889 C 43.329015 5.760821 38.232555 11.439734 38.578386 18.083334 C 38.933318 24.717834 44.612231 29.823395 51.246731 29.468463 C 52.757467 29.386556 54.240901 29.031623 55.606025 28.403667 " transform="matrix(0.429219,0,0,0.429219,0,0)"/>
</g>
</svg>
