<?xml version="1.0" encoding="utf-8"?>
<!-- Generator: Adobe Illustrator 24.0.2, SVG Export Plug-In . SVG Version: 6.00 Build 0)  -->
<svg version="1.1" xmlns="http://www.w3.org/2000/svg" xmlns:xlink="http://www.w3.org/1999/xlink" x="0px" y="0px"
	 viewBox="0 0 24 24" style="enable-background:new 0 0 24 24;" xml:space="preserve">
<style type="text/css">
	.st0{fill:none;}
	.st1{fill:#ffffff;}
</style>
<g id="bounding_box">
	<rect class="st0" width="24" height="24"/>
</g>
<g id="design">
	<g>
		<path class="st1" d="M21,8.5h-8c-0.55,0-1-0.45-1-1s0.45-1,1-1h8c0.55,0,1,0.45,1,1S21.55,8.5,21,8.5z"/>
		<path class="st1" d="M21,17.5h-8c-0.55,0-1-0.45-1-1s0.45-1,1-1h8c0.55,0,1,0.45,1,1S21.55,17.5,21,17.5z"/>
		<g>
			<path class="st1" d="M9,5v5c0,0.55-0.45,1-1,1H3c-0.55,0-1-0.45-1-1V5c0-0.55,0.45-1,1-1h5C8.55,4,9,4.45,9,5z"/>
		</g>
		<g>
			<path class="st1" d="M9,14v5c0,0.55-0.45,1-1,1H3c-0.55,0-1-0.45-1-1v-5c0-0.55,0.45-1,1-1h5C8.55,13,9,13.45,9,14z"/>
		</g>
	</g>
</g>
</svg>
