<?xml version="1.0" encoding="UTF-8"?>
<svg xmlns="http://www.w3.org/2000/svg" xmlns:xlink="http://www.w3.org/1999/xlink" width="32pt" height="32pt" viewBox="0 0 32 32" version="1.1">
<g id="surface1">
<path style=" stroke:none;fill-rule:nonzero;fill:#FFF;fill-opacity:1;" d="M 22.902344 18.242188 C 23.117188 18.050781 23.445312 18.078125 23.628906 18.296875 C 23.820312 18.515625 23.792969 18.839844 23.574219 19.023438 L 16.296875 25.339844 C 16.101562 25.511719 15.808594 25.503906 15.617188 25.335938 L 8.34375 19.023438 C 8.125 18.835938 8.105469 18.507812 8.289062 18.296875 C 8.480469 18.078125 8.804688 18.058594 9.015625 18.242188 L 15.957031 24.265625 Z M 22.902344 18.242188 "/>
<path style=" stroke:none;fill-rule:nonzero;fill:#FFF;fill-opacity:1;" d="M 22.902344 15.128906 C 23.117188 14.9375 23.445312 14.964844 23.628906 15.183594 C 23.820312 15.402344 23.792969 15.726562 23.574219 15.910156 L 16.296875 22.226562 C 16.101562 22.398438 15.808594 22.390625 15.617188 22.21875 L 8.34375 15.910156 C 8.125 15.71875 8.105469 15.394531 8.289062 15.183594 C 8.480469 14.964844 8.804688 14.945312 9.015625 15.128906 L 15.957031 21.152344 Z M 22.902344 15.128906 "/>
</g>
</svg>
