<?xml version="1.0" standalone="no"?>
<!DOCTYPE svg PUBLIC "-//W3C//DTD SVG 20010904//EN"
 "http://www.w3.org/TR/2001/REC-SVG-20010904/DTD/svg10.dtd">
<svg version="1.0" xmlns="http://www.w3.org/2000/svg"
 width="512.000000pt" height="512.000000pt" viewBox="0 0 512.000000 512.000000"
 preserveAspectRatio="xMidYMid meet">
<metadata>
Created by potrace 1.16, written by Peter Selinger 2001-2019
</metadata>
<g transform="translate(0.000000,512.000000) scale(0.100000,-0.100000)"
fill="#FFF" stroke="none">
<path d="M545 3181 c-223 -65 -392 -238 -449 -458 -21 -80 -21 -246 0 -327 57
-220 248 -410 465 -461 82 -19 236 -19 317 0 222 52 408 237 466 462 21 80 21
246 0 327 -57 220 -248 410 -465 461 -88 20 -257 18 -334 -4z m320 -171 c109
-38 210 -120 267 -220 78 -134 78 -326 0 -460 -161 -278 -537 -324 -754 -92
-88 94 -128 194 -128 322 0 165 81 310 221 401 109 69 275 90 394 49z"/>
<path d="M2385 3181 c-223 -65 -392 -238 -449 -458 -21 -80 -21 -246 0 -327
57 -220 248 -410 465 -461 82 -19 236 -19 317 0 222 52 408 237 466 462 21 80
21 246 0 327 -57 220 -248 410 -465 461 -88 20 -257 18 -334 -4z m320 -171
c109 -38 210 -120 267 -220 78 -134 78 -326 0 -460 -161 -278 -537 -324 -754
-92 -88 94 -128 194 -128 322 0 165 81 310 221 401 109 69 275 90 394 49z"/>
<path d="M4225 3181 c-223 -65 -392 -238 -449 -458 -21 -80 -21 -246 0 -327
57 -220 248 -410 465 -461 82 -19 236 -19 317 0 222 52 408 237 466 462 21 80
21 246 0 327 -57 220 -248 410 -465 461 -88 20 -257 18 -334 -4z m320 -171
c109 -38 210 -120 267 -220 78 -134 78 -326 0 -460 -161 -278 -537 -324 -754
-92 -88 94 -128 194 -128 322 0 165 81 310 221 401 109 69 275 90 394 49z"/>
</g>
</svg>
