<?xml version="1.0" standalone="no"?>
<!DOCTYPE svg PUBLIC "-//W3C//DTD SVG 20010904//EN"
 "http://www.w3.org/TR/2001/REC-SVG-20010904/DTD/svg10.dtd">
<svg version="1.0" xmlns="http://www.w3.org/2000/svg"
 width="154.000000pt" height="154.000000pt" viewBox="0 0 154.000000 154.000000"
 preserveAspectRatio="xMidYMid meet">
<metadata>
Created by potrace 1.16, written by Peter Selinger 2001-2019
</metadata>
<g transform="translate(0.000000,154.000000) scale(0.100000,-0.100000)"
fill="#FFF" stroke="none">
<path d="M674 1356 c-79 -35 -134 -115 -149 -220 l-7 -49 -68 68 c-69 69 -102
81 -108 40 -2 -14 25 -48 88 -110 l90 -90 0 -62 0 -63 -66 0 -66 0 4 -102 c3
-85 8 -113 30 -160 51 -109 155 -195 266 -219 l52 -11 0 -79 0 -78 -112 -3
c-105 -3 -113 -4 -113 -23 0 -19 8 -20 258 -23 l257 -2 0 25 0 25 -115 0 -115
0 0 78 0 78 68 17 c38 10 91 33 118 51 l49 34 63 -60 c63 -60 77 -65 96 -35 9
14 0 28 -52 80 l-62 63 29 54 c33 61 51 144 51 232 l0 58 -70 0 -70 0 0 153
c0 139 -2 156 -24 202 -28 59 -76 108 -128 129 -46 19 -152 20 -194 2z m192
-71 c30 -18 49 -40 68 -77 25 -51 26 -56 26 -255 0 -160 -3 -211 -15 -240
l-16 -37 -175 174 -176 175 6 73 c6 74 28 133 62 164 61 54 150 64 220 23z
m14 -656 c0 -3 -18 -14 -40 -24 -80 -36 -178 -1 -226 81 -22 37 -27 60 -31
146 l-5 103 151 -150 c83 -82 151 -152 151 -156z m-355 134 c14 -108 79 -193
172 -224 50 -16 141 -7 193 20 l43 22 29 -29 30 -29 -49 -31 c-130 -83 -293
-62 -401 52 -57 60 -92 143 -92 216 l0 50 34 0 c34 0 35 -1 41 -47z m571 -15
c-7 -63 -47 -168 -64 -168 -5 0 -19 11 -32 25 l-23 24 22 50 c11 27 21 68 21
90 l0 41 41 0 42 0 -7 -62z"/>
</g>
</svg>
