<?xml version="1.0" standalone="no"?>
<!DOCTYPE svg PUBLIC "-//W3C//DTD SVG 20010904//EN"
 "http://www.w3.org/TR/2001/REC-SVG-20010904/DTD/svg10.dtd">
<svg version="1.0" xmlns="http://www.w3.org/2000/svg"
 width="164.000000pt" height="164.000000pt" viewBox="0 0 164.000000 164.000000"
 preserveAspectRatio="xMidYMid meet">

<g transform="translate(0.000000,164.000000) scale(0.100000,-0.100000)"
fill="#fff" stroke="none">
<path d="M740 1435 c-60 -19 -113 -65 -142 -122 -22 -45 -23 -61 -26 -278 -2
-126 0 -240 5 -252 8 -21 30 -1 262 231 l253 253 -26 51 c-14 28 -41 63 -60
77 -68 52 -175 68 -266 40z"/>
<path d="M800 921 c-269 -270 -490 -498 -490 -506 0 -55 41 -19 526 466 282
282 493 500 492 509 -9 45 -51 8 -528 -469z"/>
<path d="M861 847 l-223 -224 32 -23 c67 -48 167 -62 254 -36 64 19 106 54
139 114 27 50 27 52 25 221 l-3 171 -224 -223z"/>
<path d="M437 914 c-22 -22 8 -264 33 -264 4 0 14 8 24 19 14 15 15 23 5 47
-6 16 -14 67 -18 114 -5 65 -10 85 -21 88 -9 1 -19 0 -23 -4z"/>
<path d="M1207 914 c-4 -4 -7 -35 -7 -69 0 -76 -23 -155 -62 -217 -107 -170
-356 -210 -520 -85 -34 26 -35 27 -52 8 -16 -18 -15 -20 15 -45 50 -42 114
-71 202 -90 l27 -6 0 -99 c0 -75 4 -101 15 -111 12 -10 18 -10 30 0 11 10 15
36 15 111 l0 99 28 6 c97 21 158 51 217 105 93 86 138 194 133 321 -2 56 -7
73 -18 76 -9 1 -19 0 -23 -4z"/>
</g>
</svg>
