<?xml version="1.0" standalone="no"?>
<!DOCTYPE svg PUBLIC "-//W3C//DTD SVG 20010904//EN"
 "http://www.w3.org/TR/2001/REC-SVG-20010904/DTD/svg10.dtd">
<svg version="1.0" xmlns="http://www.w3.org/2000/svg"
 width="164.000000pt" height="164.000000pt" viewBox="0 0 164.000000 164.000000"
 preserveAspectRatio="xMidYMid meet">

<g transform="translate(0.000000,164.000000) scale(0.100000,-0.100000)"
fill="#fff" stroke="none">
<path d="M720 1435 c-60 -19 -113 -64 -139 -120 -20 -42 -21 -60 -21 -315 0
-268 0 -271 25 -320 55 -109 186 -155 324 -114 63 18 132 81 152 140 20 56 20
532 0 588 -42 120 -199 185 -341 141z"/>
<path d="M417 914 c-13 -13 -7 -150 9 -205 38 -129 146 -238 274 -277 19 -5
47 -13 63 -16 l27 -6 0 -99 c0 -75 4 -101 15 -111 12 -10 18 -10 30 0 11 10
15 36 15 111 l0 99 28 6 c97 21 158 51 217 105 93 86 138 194 133 321 -3 65
-5 73 -23 73 -18 0 -21 -9 -26 -85 -13 -165 -71 -258 -209 -331 -39 -21 -58
-24 -150 -24 -92 0 -111 3 -150 24 -138 73 -196 166 -209 331 -5 65 -10 85
-21 88 -9 1 -19 0 -23 -4z"/>
</g>
</svg>
