<?xml version="1.0" standalone="no"?>
<!DOCTYPE svg PUBLIC "-//W3C//DTD SVG 20010904//EN"
 "http://www.w3.org/TR/2001/REC-SVG-20010904/DTD/svg10.dtd">
<svg version="1.0" xmlns="http://www.w3.org/2000/svg"
 width="154.000000pt" height="154.000000pt" viewBox="0 0 154.000000 154.000000"
 preserveAspectRatio="xMidYMid meet">
<metadata>
Created by potrace 1.16, written by Peter Selinger 2001-2019
</metadata>
<g transform="translate(0.000000,154.000000) scale(0.100000,-0.100000)"
fill="#FFF" stroke="none">
<path d="M674 1356 c-51 -23 -100 -73 -125 -128 -19 -46 -23 -74 -27 -205 l-4
-153 -65 0 -65 0 4 -102 c3 -85 8 -113 30 -160 51 -109 155 -195 266 -219 l52
-11 0 -79 0 -78 -112 -3 c-105 -3 -113 -4 -113 -23 0 -19 8 -20 258 -23 l257
-2 0 25 0 25 -115 0 -115 0 0 78 0 78 68 17 c185 48 292 201 292 419 l0 58
-70 0 -70 0 0 153 c0 139 -2 156 -24 202 -28 59 -76 108 -128 129 -46 19 -152
20 -194 2z m192 -71 c30 -18 49 -40 68 -77 25 -51 26 -56 26 -255 0 -161 -3
-211 -15 -241 -63 -149 -251 -163 -333 -24 l-27 47 0 215 c0 201 1 218 21 255
12 22 30 48 40 57 61 54 150 64 220 23z m-341 -522 c22 -172 166 -269 326
-221 88 26 169 135 169 226 l0 42 41 0 42 0 -7 -62 c-13 -124 -84 -226 -195
-280 -65 -32 -185 -32 -258 1 -107 48 -193 177 -193 291 l0 50 34 0 c34 0 35
-1 41 -47z"/>
</g>
</svg>
