<?xml version="1.0" encoding="utf-8"?>
<!-- Generator: Adobe Illustrator 24.0.2, SVG Export Plug-In . SVG Version: 6.00 Build 0)  -->
<svg version="1.1" xmlns="http://www.w3.org/2000/svg" xmlns:xlink="http://www.w3.org/1999/xlink" x="0px" y="0px"
	 viewBox="0 0 24 24" style="enable-background:new 0 0 24 24;" xml:space="preserve">
<style type="text/css">
	.st0{fill:none;}
	.st1{fill:#ffffff;}
</style>
<g id="bounding_box">
	<rect class="st0" width="24" height="24"/>
</g>
<g id="design">
	<g>
		<g>
			<path class="st1" d="M19,5.5V8c0,0.55-0.45,1-1,1h-1.5C15.12,9,14,7.88,14,6.5v-1C14,4.12,15.12,3,16.5,3S19,4.12,19,5.5z"/>
		</g>
		<g>
			<path class="st1" d="M10,5.5V8c0,0.55-0.45,1-1,1H7.5C6.12,9,5,7.88,5,6.5v-1C5,4.12,6.12,3,7.5,3S10,4.12,10,5.5z"/>
		</g>
		<g>
			<path class="st1" d="M18,21c0,0.55-0.45,1-1,1H7c-0.55,0-1-0.45-1-1c0-2.21,1.79-4,4-4h4C16.21,17,18,18.79,18,21z"/>
		</g>
		<path class="st1" d="M7,16H3c-0.55,0-1-0.45-1-1v-0.56C2,12.07,3.87,10,6,10h1c0.55,0,1,0.45,1,1s-0.45,1-1,1H6
			c-0.81,0-1.76,0.86-1.96,2H7c0.55,0,1,0.45,1,1S7.55,16,7,16z"/>
		<path class="st1" d="M21,16h-4c-0.55,0-1-0.45-1-1s0.45-1,1-1h2.96c-0.2-1.14-1.16-2-1.96-2h-1c-0.55,0-1-0.45-1-1s0.45-1,1-1h1
			c2.13,0,4,2.07,4,4.44V15C22,15.55,21.55,16,21,16z"/>
		<g>
			<path class="st1" d="M14.5,11.5V14c0,0.55-0.45,1-1,1H12c-1.38,0-2.5-1.12-2.5-2.5v-1C9.5,10.12,10.62,9,12,9
				S14.5,10.12,14.5,11.5z"/>
		</g>
	</g>
</g>
</svg>
