<?xml version="1.0" encoding="utf-8"?>
<!-- Generator: Adobe Illustrator 25.0.1, SVG Export Plug-In . SVG Version: 6.00 Build 0)  -->
<svg version="1.1" id="Layer_1" xmlns="http://www.w3.org/2000/svg" xmlns:xlink="http://www.w3.org/1999/xlink" x="0px" y="0px"
	 viewBox="0 0 430 430" style="enable-background:new 0 0 430 430;" xml:space="preserve">
<style type="text/css">
	.st0{fill:#ffffff;}
	.st1{fill:#ffffff;}
</style>
<path class="st0" d="M252.75,219.18c-13.2,0-25.67-4.3-36.06-12.42c-2.61-2.04-3.07-5.81-1.03-8.42c2.04-2.61,5.82-3.07,8.42-1.03
	c8.26,6.46,18.17,9.88,28.66,9.88c25.65,0,46.51-20.86,46.51-46.51c0-25.65-20.86-46.51-46.51-46.51c-6.36,0-12.51,1.26-18.3,3.74
	c-3.05,1.31-6.57-0.1-7.88-3.15c-1.31-3.04,0.1-6.57,3.15-7.88c7.29-3.13,15.04-4.72,23.04-4.72c32.26,0,58.51,26.25,58.51,58.51
	C311.26,192.93,285.01,219.18,252.75,219.18z"/>
<path class="st0" d="M364.98,330.64H316.3c-3.31,0-6-2.69-6-6s2.69-6,6-6h44.84v-5.52c0-35.86-29.18-65.04-65.04-65.04H156.38
	c-2.28,1.15-5.12,0.75-7-1.17c-2.31-2.37-2.26-6.17,0.11-8.49c1.55-1.51,3.58-2.34,5.73-2.34H296.1c42.48,0,77.04,34.56,77.04,77.04
	v9.36C373.14,326.98,369.48,330.64,364.98,330.64z"/>
<g>
	<path class="st1" d="M189.14,217.04c-35.66,0-64.68-29.02-64.68-64.68s29.02-64.68,64.68-64.68s64.68,29.02,64.68,64.68
		S224.8,217.04,189.14,217.04z M189.14,99.68c-29.05,0-52.68,23.63-52.68,52.68s23.63,52.68,52.68,52.68
		c29.05,0,52.68-23.63,52.68-52.68S218.19,99.68,189.14,99.68z"/>
	<path class="st1" d="M316.3,342.32H62.86c-3.31,0-6-2.69-6-6v-11.88c0-48.37,39.35-87.72,87.72-87.72h90
		c48.37,0,87.72,39.35,87.72,87.72v11.88C322.3,339.63,319.61,342.32,316.3,342.32z M68.86,330.32H310.3v-5.88
		c0-41.75-33.97-75.72-75.72-75.72h-90c-41.75,0-75.72,33.97-75.72,75.72V330.32z"/>
</g>
</svg>
