<?xml version="1.0" standalone="no"?>
<!DOCTYPE svg PUBLIC "-//W3C//DTD SVG 20010904//EN"
 "http://www.w3.org/TR/2001/REC-SVG-20010904/DTD/svg10.dtd">
<svg version="1.0" xmlns="http://www.w3.org/2000/svg"
 width="154.000000pt" height="154.000000pt" viewBox="0 0 154.000000 154.000000"
 preserveAspectRatio="xMidYMid meet">
<metadata>
Created by potrace 1.16, written by Peter Selinger 2001-2019
</metadata>
<g transform="translate(0.000000,154.000000) scale(0.100000,-0.100000)"
fill="#000000" stroke="none">
<path d="M337 1251 c-70 -65 -81 -96 -81 -231 -1 -93 4 -129 23 -190 83 -268
282 -467 551 -551 61 -19 97 -24 190 -23 135 0 166 11 231 81 61 67 54 92 -58
206 -91 91 -127 117 -163 117 -13 0 -48 -26 -86 -62 l-65 -62 -171 172 -172
171 62 65 c36 38 62 73 62 86 0 36 -26 72 -117 163 -114 112 -139 119 -206 58z
m173 -116 l94 -96 -64 -64 c-97 -98 -100 -90 123 -312 222 -223 214 -220 312
-123 l64 64 98 -97 98 -97 -46 -44 c-43 -42 -50 -44 -120 -51 -202 -19 -441
89 -585 263 -130 158 -194 359 -165 517 9 47 19 67 48 97 20 21 40 38 43 38 4
0 48 -43 100 -95z"/>
</g>
</svg>
