<?xml version="1.0" encoding="UTF-8"?>
<svg xmlns="http://www.w3.org/2000/svg" xmlns:xlink="http://www.w3.org/1999/xlink" width="32pt" height="32pt" viewBox="0 0 32 32" version="1.1">
<g id="surface1">
<path style=" stroke:none;fill-rule:nonzero;fill:#FFF;fill-opacity:1;" d="M 23.097656 15.511719 C 23.082031 15.796875 22.84375 16.019531 22.554688 16.007812 C 22.269531 15.992188 22.050781 15.75 22.0625 15.464844 C 22.105469 14.660156 21.917969 13.882812 21.546875 13.203125 C 21.175781 12.523438 20.625 11.941406 19.929688 11.542969 C 19.425781 11.25 18.875 11.070312 18.300781 11 C 17.730469 10.933594 17.152344 10.976562 16.589844 11.136719 C 16.316406 11.214844 16.03125 11.058594 15.949219 10.785156 C 15.871094 10.507812 16.027344 10.222656 16.300781 10.140625 C 16.996094 9.9375 17.722656 9.882812 18.421875 9.96875 C 19.125 10.054688 19.8125 10.28125 20.441406 10.644531 C 21.308594 11.144531 21.996094 11.863281 22.453125 12.707031 C 22.914062 13.550781 23.148438 14.519531 23.097656 15.511719 Z M 23.097656 15.511719 "/>
<path style=" stroke:none;fill-rule:nonzero;fill:#FFF;fill-opacity:1;" d="M 26.804688 15.589844 C 26.757812 15.871094 26.496094 16.066406 26.210938 16.023438 C 25.929688 15.980469 25.734375 15.714844 25.777344 15.433594 C 26.015625 13.894531 25.765625 12.367188 25.128906 11.03125 C 24.484375 9.691406 23.449219 8.542969 22.105469 7.769531 L 22.082031 7.753906 C 21.195312 7.246094 20.222656 6.929688 19.222656 6.8125 C 18.21875 6.691406 17.183594 6.777344 16.195312 7.074219 C 15.921875 7.15625 15.632812 7 15.550781 6.722656 C 15.46875 6.449219 15.625 6.160156 15.902344 6.078125 C 17.027344 5.742188 18.199219 5.648438 19.34375 5.777344 C 20.472656 5.910156 21.582031 6.273438 22.59375 6.851562 L 22.625 6.871094 C 24.152344 7.753906 25.332031 9.0625 26.0625 10.582031 C 26.792969 12.109375 27.074219 13.84375 26.808594 15.589844 Z M 26.804688 15.589844 "/>
<path style=" stroke:none;fill-rule:nonzero;fill:#FFF;fill-opacity:1;" d="M 12.929688 7.921875 C 13.273438 8.265625 13.449219 8.71875 13.449219 9.171875 C 13.449219 9.625 13.273438 10.078125 12.929688 10.421875 L 12.335938 11.019531 L 12.300781 11.050781 C 12.292969 11.054688 10.476562 12.523438 12.410156 14.464844 L 17.453125 19.503906 C 19.394531 21.445312 20.859375 19.625 20.863281 19.617188 L 20.898438 19.582031 L 21.492188 18.984375 C 21.835938 18.640625 22.289062 18.46875 22.742188 18.46875 L 22.742188 18.472656 C 23.195312 18.472656 23.652344 18.640625 23.992188 18.984375 L 26.894531 21.886719 C 27.238281 22.230469 27.410156 22.683594 27.410156 23.136719 C 27.410156 23.589844 27.238281 24.042969 26.894531 24.386719 L 25.804688 25.476562 C 24.511719 26.769531 22.8125 27.414062 21.113281 27.414062 C 19.414062 27.414062 17.710938 26.769531 16.421875 25.476562 L 6.445312 15.503906 C 5.152344 14.210938 4.507812 12.511719 4.507812 10.8125 C 4.507812 9.109375 5.152344 7.410156 6.445312 6.117188 L 7.535156 5.027344 C 7.878906 4.683594 8.332031 4.511719 8.785156 4.511719 C 9.238281 4.511719 9.691406 4.683594 10.035156 5.027344 L 12.9375 7.929688 Z M 12.40625 9.171875 C 12.40625 8.988281 12.335938 8.800781 12.199219 8.660156 L 9.296875 5.757812 C 9.15625 5.621094 8.96875 5.546875 8.78125 5.546875 C 8.597656 5.546875 8.410156 5.621094 8.269531 5.757812 L 7.179688 6.847656 C 6.09375 7.9375 5.546875 9.375 5.546875 10.808594 C 5.546875 12.242188 6.09375 13.679688 7.179688 14.765625 L 17.15625 24.742188 C 18.242188 25.828125 19.679688 26.371094 21.113281 26.371094 C 22.546875 26.371094 23.984375 25.828125 25.070312 24.742188 L 26.160156 23.652344 C 26.300781 23.511719 26.371094 23.324219 26.371094 23.136719 C 26.371094 22.949219 26.300781 22.765625 26.160156 22.625 L 23.257812 19.722656 C 23.117188 19.582031 22.929688 19.507812 22.746094 19.507812 L 22.746094 19.511719 C 22.558594 19.511719 22.371094 19.582031 22.234375 19.722656 L 21.652344 20.304688 C 21.421875 20.574219 19.324219 22.84375 16.726562 20.242188 L 11.683594 15.199219 C 9.082031 12.597656 11.355469 10.5 11.625 10.273438 L 12.203125 9.691406 C 12.34375 9.554688 12.414062 9.367188 12.414062 9.179688 Z M 12.40625 9.171875 "/>
</g>
</svg>
