<?xml version="1.0" encoding="utf-8"?>
<!-- Generator: Adobe Illustrator 24.1.2, SVG Export Plug-In . SVG Version: 6.00 Build 0)  -->
<svg version="1.1" id="Warstwa_3" xmlns="http://www.w3.org/2000/svg" xmlns:xlink="http://www.w3.org/1999/xlink" x="0px" y="0px"
	 viewBox="0 0 430 430" style="enable-background:new 0 0 430 430;" xml:space="preserve">
<style type="text/css">
	.st0{fill:#ffffff;}
	.st1{fill:#ffffff;}
	.st2{fill:#ffffff;}
	.st3{fill:none;stroke:#ffffff;stroke-width:12;stroke-linecap:round;stroke-linejoin:round;stroke-miterlimit:10;}
</style>
<g>
	<path class="st0" d="M215,381.12c-1.31,0-2.61-0.43-3.7-1.28l-65.34-51.21c-29.46-23.45-50.47-56.48-59.22-93.05
		c-0.03-0.15-0.06-0.29-0.09-0.44l-20.8-129.12c-0.51-3.16,1.55-6.16,4.68-6.82c33.17-7,122.97-29.33,140-48.31
		c1.14-1.27,2.76-1.99,4.47-1.99c1.7,0,3.33,0.73,4.47,1.99c17.03,18.99,106.83,41.31,140,48.31c3.13,0.66,5.19,3.66,4.68,6.82
		l-20.8,129.12c-0.02,0.15-0.05,0.3-0.09,0.44c-8.74,36.57-29.76,69.61-59.18,93.03l-65.38,51.24
		C217.61,380.69,216.31,381.12,215,381.12z M98.46,233c8.16,33.89,27.66,64.5,54.93,86.21L215,367.5l61.64-48.31
		c27.24-21.68,46.74-52.29,54.9-86.18l19.86-123.28c-24.57-5.41-109.17-25.19-136.4-46.71c-27.23,21.52-111.83,41.3-136.4,46.71
		L98.46,233z"/>
	<g>
		<path class="st1" d="M274.67,194.95v-38.72c0-9.44-7.68-17.12-17.12-17.12c-1.78,0-3.5,0.28-5.12,0.78v-1.86
			c0-9.79-7.97-17.76-17.76-17.76c-1.99,0-3.89,0.37-5.65,1.02c-2.48-6.4-8.69-10.95-15.95-10.95c-8.02,0-14.75,5.55-16.6,13.01
			c-1.96-0.74-4.07-1.17-6.28-1.17c-9.09,0-16.48,7.39-16.48,16.48v53.48c-1.44-1.21-3.02-2.29-4.74-3.18
			c-6.25-3.26-13.37-3.85-20.08-1.65c-5.72,1.88-9.56,7.19-9.56,13.21c0,1.24,0.17,2.47,0.49,3.65l9.07,33.31
			c4.44,16.34,14.34,30.59,28.04,40.44v17.57c0,3.31,2.69,6,6,6h71.47c3.31,0,6-2.69,6-6v-18.51c4.09-5.05,14.27-19.63,14.27-39.74
			v-42.26C274.67,194.98,274.67,194.96,274.67,194.95z M262.67,237.25c0,19.7-12.5,33.27-12.62,33.38c-1.06,1.12-1.65,2.6-1.65,4.14
			v14.73h-59.47v-14.73c0-2.02-1.02-3.91-2.72-5.02c-12.65-8.27-21.79-20.85-25.75-35.42L151.39,201c-0.04-0.16-0.06-0.31-0.06-0.47
			c0-0.81,0.54-1.56,1.31-1.81c3.59-1.18,7.42-0.86,10.77,0.89c3.35,1.75,5.8,4.71,6.88,8.34l3.66,12.25
			c0.85,2.85,3.67,4.64,6.62,4.22c2.95-0.43,5.13-2.96,5.13-5.94v-12.81c0-0.03,0-0.05,0-0.08v-66.92c0-2.47,2.01-4.48,4.48-4.48
			c3.17,0,5.76,2.58,5.76,5.76v65.65c0,3.31,2.69,6,6,6s6-2.69,6-6v-65.65v-12.48c0-2.82,2.3-5.12,5.12-5.12
			c2.82,0,5.12,2.3,5.12,5.12l0,78.12c0,3.31,2.69,6,6,6s6-2.69,6-6l0-68.83c0-2.47,2.01-4.48,4.48-4.48c3.17,0,5.76,2.58,5.76,5.76
			v18.19v49.36c0,3.31,2.69,6,6,6s6-2.69,6-6v-49.36c0-2.82,2.3-5.12,5.12-5.12c2.82,0,5.12,2.3,5.12,5.12v49.36
			c0,0.01,0,0.03,0,0.04V237.25z"/>
	</g>
</g>
</svg>
