<?xml version="1.0" encoding="utf-8"?>
<!-- Generator: Adobe Illustrator 24.0.2, SVG Export Plug-In . SVG Version: 6.00 Build 0)  -->
<svg version="1.1" xmlns="http://www.w3.org/2000/svg" xmlns:xlink="http://www.w3.org/1999/xlink" x="0px" y="0px"
	 viewBox="0 0 24 24" style="enable-background:new 0 0 24 24;" xml:space="preserve">
<style type="text/css">
	.st0{fill:none;}
	.st1{fill:#ffffff;}
</style>
<g id="bounding_box">
	<rect class="st0" width="24" height="24"/>
</g>
<g id="design">
	<g>
		<path class="st1" d="M21,4H3C2.45,4,2,4.45,2,5v10c0,0.55,0.45,1,1,1h7v2H5c-0.55,0-1,0.45-1,1s0.45,1,1,1h14c0.55,0,1-0.45,1-1
			s-0.45-1-1-1h-5v-2h7c0.55,0,1-0.45,1-1V5C22,4.45,21.55,4,21,4z M19.88,13.88c-0.23,0.24-0.55,0.37-0.88,0.37
			s-0.65-0.13-0.88-0.37c-0.12-0.11-0.21-0.25-0.28-0.4c-0.06-0.15-0.09-0.31-0.09-0.48c0-0.08,0.01-0.16,0.02-0.24
			c0.02-0.08,0.04-0.16,0.08-0.24c0.03-0.07,0.07-0.15,0.11-0.21c0.05-0.07,0.1-0.14,0.16-0.19c0.05-0.06,0.12-0.11,0.19-0.16
			c0.06-0.04,0.14-0.08,0.21-0.11c0.08-0.04,0.16-0.06,0.24-0.07c0.4-0.09,0.83,0.05,1.12,0.34c0.06,0.05,0.11,0.12,0.16,0.19
			c0.04,0.06,0.08,0.14,0.11,0.21c0.03,0.08,0.06,0.16,0.07,0.24c0.02,0.08,0.03,0.16,0.03,0.24
			C20.25,13.33,20.12,13.65,19.88,13.88z"/>
	</g>
</g>
</svg>
