<?xml version="1.0" encoding="UTF-8"?>
<svg xmlns="http://www.w3.org/2000/svg" xmlns:xlink="http://www.w3.org/1999/xlink" width="32pt" height="32pt" viewBox="0 0 32 32" version="1.1">
<g id="surface1">
<path style="fill:none;stroke-width:2.01;stroke-linecap:butt;stroke-linejoin:miter;stroke:rgb(16.862745%,16.470588%,16.078431%);stroke-opacity:1;stroke-miterlimit:2.61313;" d="M 36.030716 25.09903 C 36.030716 27.941571 33.724932 30.247356 30.882391 30.247356 C 28.03229 30.247356 25.726506 27.941571 25.726506 25.09903 C 25.726506 22.25649 28.03229 19.950705 30.882391 19.950705 C 33.724932 19.950705 36.030716 22.25649 36.030716 25.09903 Z M 36.030716 25.09903 " transform="matrix(0.516703,0,0,0.516703,0,0)"/>
<path style="fill:none;stroke-width:2.01;stroke-linecap:round;stroke-linejoin:round;stroke:rgb(16.862745%,16.470588%,16.078431%);stroke-opacity:1;stroke-miterlimit:2.61313;" d="M 30.882391 51.936849 L 30.882391 31.10163 " transform="matrix(0.516703,0,0,0.516703,0,0)"/>
<path style="fill:none;stroke-width:2.01;stroke-linecap:round;stroke-linejoin:round;stroke:rgb(16.862745%,16.470588%,16.078431%);stroke-opacity:1;stroke-miterlimit:2.61313;" d="M 38.041663 30.693392 C 39.91653 29.347722 41.027843 27.193136 41.027843 24.879792 C 41.027843 22.037251 39.349534 19.481988 36.748912 18.340436 " transform="matrix(0.516703,0,0,0.516703,0,0)"/>
<path style="fill:none;stroke-width:2.01;stroke-linecap:round;stroke-linejoin:round;stroke:rgb(16.862745%,16.470588%,16.078431%);stroke-opacity:1;stroke-miterlimit:2.61313;" d="M 23.307322 30.693392 C 21.432455 29.347722 20.321143 27.193136 20.321143 24.879792 C 20.321143 22.037251 21.999451 19.481988 24.600074 18.340436 " transform="matrix(0.516703,0,0,0.516703,0,0)"/>
<path style="fill:none;stroke-width:2.01;stroke-linecap:round;stroke-linejoin:round;stroke:rgb(16.862745%,16.470588%,16.078431%);stroke-opacity:1;stroke-miterlimit:2.61313;" d="M 40.959803 33.702252 C 43.802344 31.661066 45.488212 28.372488 45.488212 24.872232 C 45.488212 20.850339 43.273147 17.161084 39.719971 15.271097 " transform="matrix(0.516703,0,0,0.516703,0,0)"/>
<path style="fill:none;stroke-width:2.01;stroke-linecap:round;stroke-linejoin:round;stroke:rgb(16.862745%,16.470588%,16.078431%);stroke-opacity:1;stroke-miterlimit:2.61313;" d="M 20.381622 33.702252 C 17.539081 31.661066 15.853213 28.372488 15.853213 24.872232 C 15.853213 20.850339 18.068278 17.161084 21.621454 15.271097 " transform="matrix(0.516703,0,0,0.516703,0,0)"/>
</g>
</svg>
