<?xml version="1.0" encoding="UTF-8"?>
<svg xmlns="http://www.w3.org/2000/svg" xmlns:xlink="http://www.w3.org/1999/xlink" width="32pt" height="32pt" viewBox="0 0 32 32" version="1.1">
<g id="surface1">
<path style="fill:none;stroke-width:1.87;stroke-linecap:butt;stroke-linejoin:miter;stroke:rgb(16.862745%,16.470588%,16.078431%);stroke-opacity:1;stroke-miterlimit:2.61313;" d="M 33.458344 23.300093 C 33.458344 25.939694 31.317178 28.080859 28.677577 28.080859 C 26.037977 28.080859 23.896811 25.939694 23.896811 23.300093 C 23.896811 20.660492 26.037977 18.519327 28.677577 18.519327 C 31.317178 18.519327 33.458344 20.660492 33.458344 23.300093 Z M 33.458344 23.300093 " transform="matrix(0.556429,0,0,0.556429,0,0)"/>
<path style="fill:none;stroke-width:1.87;stroke-linecap:round;stroke-linejoin:round;stroke:rgb(16.862745%,16.470588%,16.078431%);stroke-opacity:1;stroke-miterlimit:2.61313;" d="M 28.677577 48.228876 L 28.677577 28.881164 " transform="matrix(0.556429,0,0,0.556429,0,0)"/>
<path style="fill:none;stroke-width:1.87;stroke-linecap:round;stroke-linejoin:round;stroke:rgb(16.862745%,16.470588%,16.078431%);stroke-opacity:1;stroke-miterlimit:2.61313;" d="M 35.318701 28.502072 C 37.059714 27.259494 38.098706 25.251713 38.098706 23.096507 C 38.098706 20.470946 36.540218 18.077053 34.132284 17.031041 " transform="matrix(0.556429,0,0,0.556429,0,0)"/>
<path style="fill:none;stroke-width:1.87;stroke-linecap:round;stroke-linejoin:round;stroke:rgb(16.862745%,16.470588%,16.078431%);stroke-opacity:1;stroke-miterlimit:2.61313;" d="M 21.650342 28.502072 C 19.909329 27.259494 18.870337 25.251713 18.870337 23.096507 C 18.870337 20.470946 20.428825 18.077053 22.836759 17.031041 " transform="matrix(0.556429,0,0,0.556429,0,0)"/>
<path style="fill:none;stroke-width:1.87;stroke-linecap:round;stroke-linejoin:round;stroke:rgb(16.862745%,16.470588%,16.078431%);stroke-opacity:1;stroke-miterlimit:2.61313;" d="M 38.042544 31.303138 C 40.682145 29.40066 42.240632 26.346866 42.240632 23.096507 C 42.240632 19.368773 40.176689 15.942908 36.891229 14.187854 " transform="matrix(0.556429,0,0,0.556429,0,0)"/>
<path style="fill:none;stroke-width:1.87;stroke-linecap:round;stroke-linejoin:round;stroke:rgb(16.862745%,16.470588%,16.078431%);stroke-opacity:1;stroke-miterlimit:2.61313;" d="M 18.926499 31.303138 C 16.286898 29.40066 14.728411 26.346866 14.728411 23.096507 C 14.728411 19.368773 16.792354 15.942908 20.077814 14.187854 " transform="matrix(0.556429,0,0,0.556429,0,0)"/>
<path style="fill:none;stroke-width:1.87;stroke-linecap:round;stroke-linejoin:round;stroke:rgb(16.862745%,16.470588%,16.078431%);stroke-opacity:1;stroke-miterlimit:2.61313;" d="M 41.306944 34.019961 C 44.676647 31.401421 46.663368 27.371818 46.663368 23.089486 C 46.663368 18.189377 44.058868 13.647298 39.839719 11.162142 " transform="matrix(0.556429,0,0,0.556429,0,0)"/>
<path style="fill:none;stroke-width:1.87;stroke-linecap:round;stroke-linejoin:round;stroke:rgb(16.862745%,16.470588%,16.078431%);stroke-opacity:1;stroke-miterlimit:2.61313;" d="M 15.662099 34.019961 C 12.292396 31.401421 10.312696 27.371818 10.312696 23.089486 C 10.312696 18.189377 12.910175 13.647298 17.129324 11.162142 " transform="matrix(0.556429,0,0,0.556429,0,0)"/>
</g>
</svg>
