<?xml version="1.0" encoding="utf-8"?>
<!-- Generator: Adobe Illustrator 24.1.2, SVG Export Plug-In . SVG Version: 6.00 Build 0)  -->
<svg version="1.1" id="Warstwa_3" xmlns="http://www.w3.org/2000/svg" xmlns:xlink="http://www.w3.org/1999/xlink" x="0px" y="0px"
	 viewBox="0 0 430 430" style="enable-background:new 0 0 430 430;" xml:space="preserve">
<style type="text/css">
	.st0{fill:#ffffff;}
	.st1{fill:#ffffff;}
	.st2{fill:none;stroke:#ffffff;stroke-width:12.95;stroke-linecap:round;stroke-linejoin:round;stroke-miterlimit:14.8;}
	.st3{fill:none;}
</style>
<g>
	<path class="st0" d="M202.43,342.26c-1.19,0-2.39-0.34-3.42-1.02l-86.3-56.2l-54.96-0.39c-3.45-0.02-6.23-2.83-6.23-6.27v-124.7
		c0-3.46,2.8-6.27,6.26-6.27l54.89-0.09l86.25-58.13c1.92-1.3,4.4-1.42,6.45-0.34c2.05,1.09,3.33,3.22,3.33,5.54v241.6
		c0,2.3-1.26,4.42-3.28,5.51C204.49,342.01,203.46,342.26,202.43,342.26z M64.07,272.16l50.57,0.36c1.2,0.01,2.37,0.36,3.38,1.02
		l78.14,50.89V106.18l-78.06,52.61c-1.03,0.7-2.25,1.07-3.49,1.07l-50.54,0.09V272.16z"/>
	<path class="st1" d="M305.93,381.27c-1.6,0-3.21-0.61-4.44-1.84c-2.45-2.45-2.45-6.42,0-8.87c85.78-85.78,85.78-225.35,0-311.13
		c-2.45-2.45-2.45-6.42,0-8.87c2.45-2.45,6.42-2.45,8.87,0c43.92,43.92,68.11,102.32,68.11,164.43s-24.19,120.51-68.11,164.43
		C309.14,380.66,307.54,381.27,305.93,381.27z"/>
	<path class="st1" d="M273.82,345.96c-1.6,0-3.21-0.61-4.44-1.84c-2.45-2.45-2.45-6.42,0-8.87c66.31-66.31,66.31-174.2,0-240.51
		c-2.45-2.45-2.45-6.42,0-8.87c2.45-2.45,6.42-2.45,8.87,0c71.2,71.2,71.2,187.05,0,258.25
		C277.03,345.35,275.42,345.96,273.82,345.96z"/>
	<path class="st1" d="M242.62,311.56c-1.6,0-3.21-0.61-4.44-1.84c-2.45-2.45-2.45-6.42,0-8.87c47.34-47.34,47.34-124.37,0-171.71
		c-2.45-2.45-2.45-6.42,0-8.87c2.45-2.45,6.42-2.45,8.87,0c52.23,52.23,52.23,137.22,0,189.45
		C245.83,310.95,244.23,311.56,242.62,311.56z"/>
</g>
</svg>
