<?xml version="1.0" standalone="no"?>
<!DOCTYPE svg PUBLIC "-//W3C//DTD SVG 20010904//EN"
 "http://www.w3.org/TR/2001/REC-SVG-20010904/DTD/svg10.dtd">
<svg version="1.0" xmlns="http://www.w3.org/2000/svg"
 width="154.000000pt" height="154.000000pt" viewBox="0 0 154.000000 154.000000"
 preserveAspectRatio="xMidYMid meet">
<metadata>
Created by potrace 1.16, written by Peter Selinger 2001-2019
</metadata>
<g transform="translate(0.000000,154.000000) scale(0.100000,-0.100000)"
fill="#FFF" stroke="none">
<path d="M579 1250 c-9 -5 -27 -34 -39 -65 -19 -47 -27 -56 -59 -65 -20 -5
-63 -10 -97 -10 -67 0 -109 -21 -148 -73 -20 -27 -21 -40 -21 -342 0 -302 1
-315 21 -342 11 -15 36 -38 54 -50 l33 -23 447 0 447 0 34 23 c19 12 44 42 57
67 22 44 23 50 20 341 l-3 296 -28 36 c-39 51 -69 64 -170 70 -48 2 -93 10
-100 15 -7 6 -19 28 -26 49 -7 21 -23 48 -34 61 -20 21 -27 22 -196 22 -97 0
-183 -5 -192 -10z m326 -46 c12 -3 29 -26 44 -59 13 -30 30 -60 39 -67 8 -7
56 -16 109 -19 101 -7 136 -22 160 -70 20 -38 18 -550 -2 -589 -32 -62 -18
-60 -488 -60 l-429 0 -34 34 -34 34 0 282 c0 361 -2 356 166 369 107 7 130 22
159 96 9 24 24 46 33 48 25 7 254 8 277 1z"/>
<path d="M957 973 c-4 -3 -7 -24 -7 -45 l0 -39 -33 25 c-51 39 -101 56 -166
56 -75 0 -153 -38 -194 -96 -49 -69 -4 -106 47 -39 58 76 162 97 242 50 24
-14 48 -34 54 -45 9 -18 6 -19 -47 -22 -47 -2 -58 -6 -61 -22 -2 -10 2 -22 10
-27 21 -14 182 -11 196 3 13 13 17 163 6 192 -6 16 -35 22 -47 9z"/>
<path d="M542 698 c-18 -18 -16 -182 3 -198 27 -22 45 -4 45 46 l0 46 39 -35
c100 -90 278 -69 355 42 31 45 29 71 -6 71 -15 0 -31 -12 -45 -34 -26 -40 -95
-76 -146 -76 -49 0 -100 22 -134 57 l-28 28 60 5 c48 4 61 9 63 24 2 10 -2 22
-10 27 -21 14 -182 11 -196 -3z"/>
</g>
</svg>
