<?xml version="1.0" encoding="utf-8"?>
<!-- Generator: Adobe Illustrator 24.0.2, SVG Export Plug-In . SVG Version: 6.00 Build 0)  -->
<svg version="1.1" xmlns="http://www.w3.org/2000/svg" xmlns:xlink="http://www.w3.org/1999/xlink" x="0px" y="0px"
	 viewBox="0 0 24 24" style="enable-background:new 0 0 24 24;" xml:space="preserve">
<style type="text/css">
	.st0{fill:none;}
	.st1{fill:#ffffff;}
</style>
<g id="bounding_box">
	<rect class="st0" width="24" height="24"/>
</g>
<g id="design">
	<g>
		<circle class="st1" cx="12" cy="13" r="3"/>
		<path class="st1" d="M20.03,6.39h-2.22l-0.52-1.44C16.88,3.78,15.76,3,14.52,3H9.63c-1.17,0-2.24,0.7-2.7,1.78l-0.7,1.61H3.97
			C2.88,6.39,2,7.28,2,8.36v10.67C2,20.12,2.88,21,3.97,21h16.06c1.09,0,1.97-0.88,1.97-1.97V8.36C22,7.28,21.12,6.39,20.03,6.39z
			 M12,18c-2.76,0-5-2.24-5-5s2.24-5,5-5s5,2.24,5,5S14.76,18,12,18z M20.23,10.24c-0.02,0.08-0.04,0.16-0.08,0.24
			c-0.03,0.07-0.07,0.15-0.11,0.21c-0.05,0.07-0.1,0.14-0.16,0.19c-0.23,0.24-0.55,0.37-0.88,0.37s-0.65-0.13-0.88-0.37
			c-0.06-0.05-0.11-0.12-0.16-0.19c-0.04-0.06-0.08-0.14-0.11-0.21c-0.04-0.08-0.06-0.16-0.08-0.24c-0.01-0.08-0.02-0.16-0.02-0.24
			c0-0.33,0.13-0.65,0.37-0.88c0.05-0.06,0.12-0.11,0.19-0.16c0.06-0.04,0.14-0.08,0.21-0.11c0.08-0.04,0.16-0.06,0.24-0.08
			c0.16-0.03,0.32-0.03,0.48,0c0.08,0.02,0.16,0.04,0.24,0.08c0.07,0.03,0.15,0.07,0.21,0.11c0.07,0.05,0.14,0.1,0.19,0.16
			c0.24,0.23,0.37,0.55,0.37,0.88C20.25,10.08,20.24,10.16,20.23,10.24z"/>
	</g>
</g>
</svg>
