<?xml version="1.0" standalone="no"?>
<!DOCTYPE svg PUBLIC "-//W3C//DTD SVG 20010904//EN"
 "http://www.w3.org/TR/2001/REC-SVG-20010904/DTD/svg10.dtd">
<svg version="1.0" xmlns="http://www.w3.org/2000/svg"
 width="1280.000000pt" height="1280.000000pt" viewBox="0 0 1280.000000 1280.000000"
 preserveAspectRatio="xMidYMid meet">
<metadata>
Created by potrace 1.16, written by Peter Selinger 2001-2019
</metadata>
<g transform="translate(0.000000,1280.000000) scale(0.100000,-0.100000)"
fill="#000000" stroke="none">
<path d="M6115 12589 c-287 -38 -611 -207 -850 -444 -268 -266 -421 -569 -456
-906 -15 -142 -6 -473 15 -590 47 -257 204 -552 405 -761 197 -206 415 -344
672 -426 160 -51 210 -57 504 -57 297 0 354 7 523 66 524 184 943 654 1049
1177 26 126 26 578 0 704 -118 584 -618 1090 -1209 1223 -86 20 -538 30 -653
14z m532 -443 c407 -89 742 -396 867 -794 153 -487 -14 -989 -434 -1302 -436
-325 -1062 -286 -1473 90 -244 224 -377 535 -377 881 0 235 57 413 200 627
176 264 462 455 750 502 41 6 82 13 90 15 38 9 312 -5 377 -19z"/>
<path d="M6115 7989 c-287 -38 -611 -207 -850 -444 -268 -266 -421 -569 -456
-906 -15 -142 -6 -473 15 -590 47 -257 204 -552 405 -761 197 -206 415 -344
672 -426 160 -51 210 -57 504 -57 297 0 354 7 523 66 524 184 943 654 1049
1177 26 126 26 578 0 704 -118 584 -618 1090 -1209 1223 -86 20 -538 30 -653
14z m532 -443 c407 -89 742 -396 867 -794 153 -487 -14 -989 -434 -1302 -436
-325 -1062 -286 -1473 90 -244 224 -377 535 -377 881 0 235 57 413 200 627
176 264 462 455 750 502 41 6 82 13 90 15 38 9 312 -5 377 -19z"/>
<path d="M6115 3389 c-287 -38 -611 -207 -850 -444 -268 -266 -421 -569 -456
-906 -15 -142 -6 -473 15 -590 47 -257 204 -552 405 -761 197 -206 415 -344
672 -426 160 -51 210 -57 504 -57 297 0 354 7 523 66 524 184 943 654 1049
1177 26 126 26 578 0 704 -118 584 -618 1090 -1209 1223 -86 20 -538 30 -653
14z m532 -443 c407 -89 742 -396 867 -794 153 -487 -14 -989 -434 -1302 -436
-325 -1062 -286 -1473 90 -244 224 -377 535 -377 881 0 235 57 413 200 627
176 264 462 455 750 502 41 6 82 13 90 15 38 9 312 -5 377 -19z"/>
</g>
</svg>
