<?xml version="1.0" standalone="no"?>
<!DOCTYPE svg PUBLIC "-//W3C//DTD SVG 20010904//EN"
 "http://www.w3.org/TR/2001/REC-SVG-20010904/DTD/svg10.dtd">
<svg version="1.0" xmlns="http://www.w3.org/2000/svg"
 width="154.000000pt" height="154.000000pt" viewBox="0 0 154.000000 154.000000"
 preserveAspectRatio="xMidYMid meet">
<metadata>
Created by potrace 1.16, written by Peter Selinger 2001-2019
</metadata>
<g transform="translate(0.000000,154.000000) scale(0.100000,-0.100000)"
fill="#FFF" stroke="none">
<path d="M405 1149 c-44 -39 -58 -87 -53 -182 4 -81 18 -111 72 -151 23 -18
42 -21 119 -21 157 0 197 39 197 193 0 159 -33 192 -197 192 -100 0 -103 -1
-138 -31z m220 -33 c45 -19 55 -42 55 -130 0 -65 -3 -79 -24 -103 -23 -26 -29
-28 -106 -28 -80 0 -82 1 -112 34 -29 32 -30 37 -26 107 3 60 8 77 27 98 13
14 33 27 45 29 47 9 109 6 141 -7z"/>
<path d="M863 1160 c-50 -30 -63 -66 -63 -172 0 -154 40 -193 197 -193 77 0
96 3 119 21 54 40 68 70 72 151 5 95 -9 143 -53 182 -35 30 -38 31 -138 31
-84 0 -108 -4 -134 -20z m239 -69 c25 -28 28 -39 28 -101 0 -62 -3 -73 -28
-101 -21 -24 -38 -32 -74 -36 -65 -7 -116 4 -144 32 -21 21 -24 33 -24 100 0
42 5 85 11 96 18 34 67 50 139 45 57 -4 68 -8 92 -35z"/>
<path d="M462 741 c-44 -12 -90 -56 -103 -102 -18 -57 -8 -183 17 -215 44 -59
68 -69 167 -69 159 1 197 39 197 195 0 108 -16 147 -71 175 -36 19 -158 28
-207 16z m163 -65 c18 -8 38 -23 44 -34 17 -32 14 -163 -4 -189 -36 -52 -176
-57 -224 -9 -22 22 -26 37 -29 99 -4 67 -2 76 22 104 15 18 37 34 49 36 48 9
109 6 142 -7z"/>
<path d="M915 741 c-91 -24 -115 -63 -115 -191 0 -156 38 -194 197 -195 99 0
123 10 167 69 18 23 21 42 21 126 0 106 -9 130 -66 173 -29 21 -152 32 -204
18z m187 -90 c25 -28 28 -39 28 -101 0 -62 -3 -73 -27 -100 -23 -26 -38 -32
-84 -37 -66 -6 -122 9 -144 40 -18 26 -21 157 -4 188 18 34 67 50 139 45 57
-4 68 -8 92 -35z"/>
</g>
</svg>
