<?xml version="1.0" encoding="utf-8"?>
<!-- Generator: Adobe Illustrator 24.0.2, SVG Export Plug-In . SVG Version: 6.00 Build 0)  -->
<svg version="1.1" xmlns="http://www.w3.org/2000/svg" xmlns:xlink="http://www.w3.org/1999/xlink" x="0px" y="0px"
	 viewBox="0 0 24 24" style="enable-background:new 0 0 24 24;" xml:space="preserve">
<style type="text/css">
	.st0{fill:none;}
	.st1{fill:#ffffff;}
</style>
<g id="bounding_box">
	<rect class="st0" width="24" height="24"/>
</g>
<g id="design">
	<g>
		<g>
			<path class="st1" d="M11,17v2c0,1.1-0.9,2-2,2H5c-1.1,0-2-0.9-2-2v-2c0-1.1,0.9-2,2-2h4C10.1,15,11,15.9,11,17z"/>
		</g>
		<g>
			<path class="st1" d="M11,5v6c0,1.1-0.9,2-2,2H5c-1.1,0-2-0.9-2-2V5c0-1.1,0.9-2,2-2h4C10.1,3,11,3.9,11,5z"/>
		</g>
		<g>
			<path class="st1" d="M21,5v2c0,1.1-0.9,2-2,2h-4c-1.1,0-2-0.9-2-2V5c0-1.1,0.9-2,2-2h4C20.1,3,21,3.9,21,5z"/>
		</g>
		<g>
			<path class="st1" d="M21,13v6c0,1.1-0.9,2-2,2h-4c-1.1,0-2-0.9-2-2v-6c0-1.1,0.9-2,2-2h4C20.1,11,21,11.9,21,13z"/>
		</g>
	</g>
</g>
</svg>
