<?xml version="1.0" standalone="no"?>
<!DOCTYPE svg PUBLIC "-//W3C//DTD SVG 20010904//EN"
 "http://www.w3.org/TR/2001/REC-SVG-20010904/DTD/svg10.dtd">
<svg version="1.0" xmlns="http://www.w3.org/2000/svg"
 width="154.000000pt" height="154.000000pt" viewBox="0 0 154.000000 154.000000"
 preserveAspectRatio="xMidYMid meet">
<metadata>
Created by potrace 1.16, written by Peter Selinger 2001-2019
</metadata>
<g transform="translate(0.000000,154.000000) scale(0.100000,-0.100000)"
fill="#FFFFFF" stroke="none">
<path d="M615 1092 c-160 -48 -308 -152 -396 -279 l-30 -43 30 -43 c40 -59
156 -165 223 -205 31 -18 89 -45 130 -60 65 -24 87 -27 203 -27 123 0 134 2
211 33 128 51 263 155 336 260 l29 43 -36 49 c-80 109 -213 210 -343 258 -91
34 -267 41 -357 14z m329 -70 c33 -12 85 -36 115 -54 61 -36 211 -176 211
-197 0 -23 -114 -133 -189 -182 -238 -157 -511 -125 -729 86 -45 44 -82 87
-82 95 0 23 150 163 214 200 106 60 187 81 301 77 71 -3 117 -10 159 -25z"/>
<path d="M715 1001 c-111 -29 -179 -116 -179 -231 0 -70 17 -114 63 -163 83
-90 244 -95 334 -9 115 109 87 311 -53 382 -43 22 -122 32 -165 21z m154 -84
c114 -76 101 -246 -24 -307 -88 -43 -191 -6 -235 85 -78 160 109 321 259 222z"/>
</g>
</svg>
