<?xml version="1.0" standalone="no"?>
<!DOCTYPE svg PUBLIC "-//W3C//DTD SVG 20010904//EN"
 "http://www.w3.org/TR/2001/REC-SVG-20010904/DTD/svg10.dtd">
<svg version="1.0" xmlns="http://www.w3.org/2000/svg"
 width="154.000000pt" height="154.000000pt" viewBox="0 0 154.000000 154.000000"
 preserveAspectRatio="xMidYMid meet">
<metadata>
Created by potrace 1.16, written by Peter Selinger 2001-2019
</metadata>
<g transform="translate(0.000000,154.000000) scale(0.100000,-0.100000)"
fill="#FFF" stroke="none">
<path d="M405 1140 c-19 -21 -15 -24 350 -390 l369 -369 24 21 23 22 -368 368
c-202 202 -371 368 -374 368 -3 0 -14 -9 -24 -20z"/>
<path d="M621 1099 c-41 -10 -77 -21 -80 -24 -2 -3 4 -15 16 -26 20 -21 21
-21 98 -4 138 31 280 5 410 -73 66 -40 205 -172 205 -195 0 -20 -119 -138
-174 -173 -25 -16 -46 -34 -46 -40 0 -15 22 -34 40 -34 22 0 147 102 193 158
76 91 75 83 22 152 -26 34 -77 86 -114 116 -75 63 -220 137 -299 153 -79 16
-188 12 -271 -10z"/>
<path d="M399 999 c-60 -43 -133 -114 -176 -172 -35 -47 -35 -48 -17 -75 89
-138 268 -263 434 -303 75 -18 213 -15 280 5 80 24 85 28 57 54 -20 19 -29 21
-50 13 -135 -52 -302 -26 -464 70 -66 40 -193 161 -193 184 0 23 100 126 166
171 30 21 54 40 54 44 0 8 -34 40 -42 40 -3 0 -25 -14 -49 -31z"/>
<path d="M707 1006 c-66 -18 -77 -31 -50 -57 18 -18 24 -19 43 -9 32 17 111
15 147 -3 40 -21 78 -67 93 -113 10 -29 10 -49 0 -91 -9 -42 -9 -57 0 -68 23
-28 39 -16 56 42 53 184 -106 349 -289 299z"/>
<path d="M554 879 c-13 -24 -19 -56 -19 -105 0 -61 4 -77 30 -120 56 -90 167
-133 270 -105 66 18 74 27 48 52 -19 19 -25 20 -54 10 -74 -25 -155 -1 -200
62 -36 50 -45 96 -29 153 12 42 11 47 -8 66 l-20 21 -18 -34z"/>
</g>
</svg>
