<?xml version="1.0" encoding="utf-8"?>
<!-- Generator: Adobe Illustrator 24.0.2, SVG Export Plug-In . SVG Version: 6.00 Build 0)  -->
<svg version="1.1" xmlns="http://www.w3.org/2000/svg" xmlns:xlink="http://www.w3.org/1999/xlink" x="0px" y="0px"
	 viewBox="0 0 24 24" style="enable-background:new 0 0 24 24;" xml:space="preserve">
<style type="text/css">
	.st0{fill:none;}
	.st1{fill:#ffffff;}
</style>
<g id="bounding_box">
	<rect class="st0" width="24" height="24"/>
</g>
<g id="design">
	<g>
		<path class="st1" d="M21.61,12.75l-1.24,0.44c-0.12,0.04-0.23,0.06-0.34,0.06c-0.41,0-0.8-0.25-0.94-0.66
			c-0.19-0.52,0.08-1.1,0.6-1.28l1.18-0.42c-1.52-2.92-4.44-5-7.87-5.34V7c0,0.55-0.44,1-1,1c-0.55,0-1-0.45-1-1V5.55
			C7.57,5.89,4.64,7.98,3.13,10.9l1.15,0.41c0.51,0.18,0.79,0.76,0.6,1.28C4.74,13,4.35,13.25,3.94,13.25
			c-0.11,0-0.23-0.02-0.34-0.06l-1.21-0.43C2.13,13.63,2,14.55,2,15.5v1.75C2,18.21,2.79,19,3.75,19h16.5
			c0.96,0,1.75-0.79,1.75-1.75V15.5C22,14.55,21.87,13.62,21.61,12.75z M13.47,15.29c-0.02,0.1-0.05,0.19-0.09,0.28
			c-0.04,0.09-0.08,0.18-0.14,0.26c-0.05,0.09-0.12,0.16-0.18,0.23c-0.29,0.28-0.67,0.44-1.06,0.44c-0.4,0-0.79-0.16-1.06-0.44
			c-0.07-0.07-0.14-0.14-0.19-0.23c-0.06-0.07-0.09-0.16-0.13-0.24l-1.95-0.67c-0.52-0.18-0.79-0.75-0.62-1.27
			c0.18-0.53,0.75-0.81,1.28-0.63l1.96,0.67c0.56-0.29,1.31-0.21,1.77,0.25c0.27,0.28,0.44,0.66,0.44,1.06
			C13.5,15.1,13.48,15.2,13.47,15.29z"/>
	</g>
</g>
</svg>
