<?xml version="1.0" encoding="utf-8"?>
<!-- Generator: Adobe Illustrator 24.0.2, SVG Export Plug-In . SVG Version: 6.00 Build 0)  -->
<svg version="1.1" xmlns="http://www.w3.org/2000/svg" xmlns:xlink="http://www.w3.org/1999/xlink" x="0px" y="0px"
	 viewBox="0 0 24 24" style="enable-background:new 0 0 24 24;" xml:space="preserve">
<style type="text/css">
	.st0{fill:none;}
	.st1{fill:#ffffff;}
</style>
<g id="bounding_box">
	<rect class="st0" width="24" height="24"/>
</g>
<g id="design">
	<g>
		<path class="st1" d="M21,11.92v6.1c0.02,0.76-0.27,1.51-0.83,2.08S18.83,21,18.03,21H15c-0.55,0-1-0.45-1-1v-4c0-1.65,1.35-3,3-3
			h1.03c0.34,0,0.66,0.06,0.97,0.16v-1.24C19,8.1,15.98,5,12.26,5h-0.49C8.04,5,5,8.07,5,11.84v1.34C5.31,13.06,5.65,13,6,13h1
			c1.65,0,3,1.35,3,3v4c0,0.55-0.45,1-1,1H6c-1.65,0-3-1.35-3-3v-6.16C3,6.96,6.94,3,11.77,3h0.49C17.08,3,21,7,21,11.92z"/>
	</g>
</g>
</svg>
